<?xml version="1.0" encoding="UTF-8" standalone="no"?>
<svg
   version="1.1"
   width="600"
   height="400"
   id="svg3"
   sodipodi:docname="Te Kōwhaiwhai o Te Tai Tokerau.svg"
   xml:space="preserve"
   inkscape:version="1.3.2 (091e20e, 2023-11-25, custom)"
   inkscape:export-filename="maori2.png"
   inkscape:export-xdpi="480"
   inkscape:export-ydpi="480"
   xmlns:inkscape="http://www.inkscape.org/namespaces/inkscape"
   xmlns:sodipodi="http://sodipodi.sourceforge.net/DTD/sodipodi-0.dtd"
   xmlns="http://www.w3.org/2000/svg"
   xmlns:svg="http://www.w3.org/2000/svg"
   xmlns:rdf="http://www.w3.org/1999/02/22-rdf-syntax-ns#"
   xmlns:cc="http://creativecommons.org/ns#"
   xmlns:dc="http://purl.org/dc/elements/1.1/"><title
     id="title1">Te Kōwhaiwhai o Te Tai Tokerau</title><defs
     id="defs3"><linearGradient
       id="swatch64"
       inkscape:swatch="solid"><stop
         style="stop-color:#000000;stop-opacity:1;"
         offset="0"
         id="stop65" /></linearGradient></defs><sodipodi:namedview
     id="namedview3"
     pagecolor="#505050"
     bordercolor="#eeeeee"
     borderopacity="1"
     inkscape:showpageshadow="0"
     inkscape:pageopacity="0"
     inkscape:pagecheckerboard="0"
     inkscape:deskcolor="#505050"
     inkscape:zoom="1.4142136"
     inkscape:cx="168.64497"
     inkscape:cy="183.14066"
     inkscape:window-width="1920"
     inkscape:window-height="1017"
     inkscape:window-x="-8"
     inkscape:window-y="-8"
     inkscape:window-maximized="1"
     inkscape:current-layer="svg3" /><rect
     width="417.37161"
     height="400"
     x="182.62839"
     y="0"
     fill="#fd070b"
     id="rect1"
     style="fill:#fcc72e;fill-opacity:1;stroke-width:0.834038" /><g
     id="layer12"
     inkscape:label="sun"
     transform="matrix(2.1196933,0,0,2.1196933,-1184.2803,-284.45581)"><path
       style="fill:#0a0a0a;fill-opacity:1;stroke-width:3.78"
       d="m 322.17237,154.32237 c 4.89514,-8.3759 13.61635,-14.01541 21.6583,-19.44175 6.41176,-4.32637 13.46212,-7.87944 20.83723,-10.21093 8.60588,-2.72057 17.71947,-4.24506 26.74512,-4.22652 16.68324,0.0343 34.58424,0.35304 49.40382,8.01538 8.90906,4.60636 16.16791,12.71619 21.10186,21.44809 4.2058,7.44325 5.23477,16.3695 6.37986,24.84178 1.20889,8.94435 1.70847,18.13289 0.46839,27.07297 -2.20986,15.93152 -4.22495,33.3737 -13.93461,46.19631 -8.91519,11.77343 -23.91596,17.70081 -37.35849,23.81576 -8.21559,3.73724 -17.00994,6.6012 -25.97485,7.64676 -14.53065,1.69467 -29.73759,1.57751 -43.82322,-2.37302 -5.26466,-1.47655 -10.42845,-4.05739 -14.45171,-7.76011 -6.18512,-5.69234 -10.76257,-13.28768 -13.72927,-21.15261 -2.87178,-7.6133 -2.45851,-16.08793 -3.54392,-24.15213 -1.20396,-8.94502 -3.72811,-17.86099 -3.29224,-26.87614 0.70647,-14.61207 2.13218,-30.21354 9.51373,-42.84384 z"
       id="all_nava_members_are_stinky_pieces_of_shit"
       transform="matrix(0.47176636,0,0,0.47176636,558.70191,134.2436)"
       sodipodi:nodetypes="aaaaaaaaaaaaaaaaa"
       inkscape:label="path18" /><path
       style="fill:#ff160d;fill-opacity:1;stroke-width:3.78"
       d="m 343.35717,164.60055 c 3.1663,-4.81314 7.88061,-8.51314 12.56234,-11.87069 4.70204,-3.37211 9.79468,-6.47072 15.33893,-8.12653 7.78852,-2.32607 16.15666,-2.57473 24.27941,-2.27043 11.55707,0.43296 24.05634,0.26235 34.2063,5.80597 6.80448,3.71642 12.65537,10.04656 15.66878,17.19023 4.00938,9.50474 2.94777,20.63777 1.83211,30.89303 -1.4969,13.75968 -3.3727,28.61531 -11.31371,39.95153 -5.37639,7.67509 -14.31278,12.47686 -22.80419,16.44024 -8.56672,3.99853 -18.06302,6.25349 -27.48879,6.98268 -6.88132,0.53235 -13.90269,-0.338 -20.61356,-1.95051 -5.97138,-1.43483 -12.31482,-2.97331 -17.12825,-6.78737 -4.72223,-3.74179 -8.21482,-9.19273 -10.32385,-14.83653 -3.44618,-9.22203 -3.08102,-19.52024 -3.16344,-29.3648 -0.0654,-7.81767 0.41288,-15.72871 2.12132,-23.3577 1.45003,-6.47505 3.17986,-13.15565 6.8266,-18.69912 z"
       id="path17"
       transform="matrix(0.59547426,0,0,0.59547426,510.29671,109.51149)"
       sodipodi:nodetypes="aaaaaaaaaaaaaaaa" /><path
       style="fill:#0a0a0a;fill-opacity:1;stroke-width:3.78"
       d="m 716.034,243.33312 c 3.5877,1.28288 5.32372,5.77771 8.83884,7.24784 5.16595,2.16056 11.25476,3.05059 16.7054,1.76777 6.66697,-1.56909 13.15422,-5.61508 17.32411,-11.04854 4.70296,-6.12806 8.65611,-14.55583 6.98268,-22.09709 -1.37778,-6.20891 -7.00576,-11.67651 -12.9047,-14.05375 -5.7497,-2.31709 -13.00769,-1.60459 -18.56155,1.14905 -5.85793,2.9044 -10.9841,8.57279 -12.81631,14.84925 -1.66849,5.71562 -1.83076,13.6596 2.56326,17.67766 4.37682,4.00234 12.35319,3.39636 17.76606,0.97228 5.81621,-2.60471 12.69508,-8.61061 11.93243,-14.93763 -0.36954,-3.06579 -4.27968,-5.21748 -7.33624,-5.65686 -3.53643,-0.50836 -8.16232,0.81792 -9.98788,3.88909 -0.74364,1.25104 -0.6564,3.52057 0.55243,4.33103 0.7539,0.50545 2.03018,-0.0255 2.62955,-0.70711 0.83441,-0.94889 -0.0274,-2.61206 0.50823,-3.7565 0.19889,-0.42498 0.481,-1.03242 0.95018,-1.03857 1.14592,-0.015 1.95931,1.41145 2.38648,2.47488 0.83464,2.07781 1.0928,4.77562 -0.0221,6.71751 -0.79566,1.38585 -2.53437,2.4035 -4.13216,2.43068 -2.51444,0.0428 -5.14866,-1.56896 -6.62912,-3.60182 -1.76043,-2.41729 -2.3515,-5.90805 -1.65729,-8.81674 0.62929,-2.63668 2.63889,-5.0353 4.94975,-6.45235 4.05551,-2.48689 9.41892,-3.7713 14.03165,-2.60746 3.72314,0.93939 7.23842,3.79925 8.97142,7.22575 1.52066,3.00667 1.22895,6.82223 0.44194,10.09837 -1.34641,5.60481 -4.32571,11.09472 -8.52107,15.04764 -3.14267,2.96106 -7.34988,5.14271 -11.63147,5.70152 -4.79563,0.6259 -9.81793,-0.84884 -14.23053,-2.82842 -2.89786,-1.30004 -5.7272,-3.18106 -7.6014,-5.74525 -2.74658,-3.75773 -4.64834,-8.51538 -4.64038,-13.16986 0.0101,-5.92681 2.41806,-12.00219 5.96621,-16.74959 4.85452,-6.49531 11.87229,-12.08126 19.66641,-14.31891 6.25971,-1.79713 13.50157,-1.19059 19.48963,1.37002 5.05314,2.16082 9.75179,6.17121 12.19759,11.09273 3.4426,6.9273 4.11564,15.65142 2.07713,23.11356 -2.13309,7.80835 -8.10031,14.36435 -14.16819,19.7217 -3.8413,3.3915 -8.6515,5.695 -13.5,7.35327 -2.63583,0.9015 -5.47372,1.56349 -8.25,1.33423 -3.90007,-0.32206 -7.85387,-1.60199 -11.125,-3.75 -3.82237,-2.50999 -7.02759,-6.15694 -9.1875,-10.1875 -0.70586,-1.31718 -2.17779,-3.2989 -1.10938,-4.34375 0.26745,-0.26155 0.71026,0.25109 1.08088,0.30187 0,0 10e-6,0 10e-6,0 z"
       id="path467"
       sodipodi:nodetypes="aaaaaaaaaaaaaaaaaaaaaaaaaaaaaaaaaaaaaaaaaaaa" /><path
       style="fill:#0a0a0a;fill-opacity:1;stroke-width:3.78"
       d="m 779.60336,216.69967 0.22097,12.77212 -6.57388,19.63326 28.75936,7.01582 -20.37352,-14.4073 24.85923,0.15469 -20.08625,-10.38564 23.21336,-5.8864 z"
       id="path468"
       sodipodi:nodetypes="ccccccccc" /><path
       style="fill:#0a0a0a;fill-opacity:1;stroke-width:3.78"
       d="m 707.7864,239.95399 -1.55317,-12.67926 4.48826,-20.21228 -29.33466,-3.97502 21.76631,12.20159 -24.73953,2.44145 21.06074,8.23189 -22.47197,8.2777 z"
       id="fuck_nava"
       sodipodi:nodetypes="ccccccccc"
       inkscape:label="path469" /><path
       style="fill:#0a0a0a;fill-opacity:1;stroke-width:3.78"
       d="m 755.65203,262.36755 -12.25406,3.60748 -20.67432,-1.11951 0.87989,29.58967 8.47447,-23.46985 6.45774,24.00631 4.67379,-22.12407 11.84414,20.81408 z"
       id="path470"
       sodipodi:nodetypes="ccccccccc" /><path
       style="fill:#0a0a0a;fill-opacity:1;stroke-width:3.78"
       d="m 730.73996,193.08266 12.61745,-1.99393 20.35638,3.78139 2.95068,-29.45533 -11.43591,22.17816 -3.30182,-24.63947 -7.4932,21.33473 -9.05553,-22.16995 z"
       id="path471"
       sodipodi:nodetypes="ccccccccc" /></g><rect
     width="123.60764"
     height="400"
     x="0"
     y="0"
     fill="#000000"
     id="rect7"
     style="fill:#ff160d;fill-opacity:1;stroke-width:0.641891" /><rect
     width="124.61617"
     height="400.71027"
     x="64.175308"
     y="0.36576459"
     fill="#000000"
     id="rect2"
     style="fill:#0a0a0a;fill-opacity:1;stroke-width:0.644424"
     transform="matrix(0.99998376,-0.00569946,0,1,0,0)" /><g
     transform="matrix(0,0.06370347,-0.06370347,0,177.45974,-0.31089715)"
     fill="#000000"
     stroke="none"
     id="pattern"
     style="fill:#fcc72e;fill-opacity:1"><path
       d="m 25,1590 c 17,-4 80,-19 140,-34 154,-36 261,-91 346,-177 79,-81 110,-142 111,-216 1,-115 -90,-213 -198,-213 -91,0 -147,35 -160,97 -13,65 65,97 111,47 l 25,-27 v 44 c 0,55 -19,84 -66,99 -71,24 -165,-6 -273,-85 L 0,1080 V 810 C 0,662 2,540 5,540 c 3,0 67,51 143,112 75,62 250,203 387,313 209,168 587,475 741,602 l 39,32 -660,-1 c -363,0 -647,-4 -630,-8 z"
       id="path1"
       style="fill:#fcc72e;fill-opacity:1" /><path
       d="m 1351.5127,1599 c 0,0 127.6906,-100 259.6906,-207 132,-106 285,-229 340,-274 55,-45 113,-89 113,-89 0,0 167.0272,190.9526 457,362 169,111 475,207 475,207 z"
       id="path2"
       sodipodi:nodetypes="ccscccc"
       style="fill:#fcc72e;fill-opacity:1" /><path
       d="m 3485,1589 c 223,-29 405,-108 510,-221 35,-38 71,-85 80,-105 40,-83 28,-178 -31,-243 -45,-50 -90,-70 -156,-70 -67,0 -118,25 -140,69 -20,40 -12,70 25,91 31,17 76,1 84,-31 8,-29 23,-4 23,38 0,22 -10,43 -29,65 -28,31 -33,33 -98,33 -108,-1 -162,-34 -372,-223 C 3195,824 3086,755 2920,699 2802,660 2656,650 2545,673 l -70,15 35,-30 c 57,-48 520,-422 541,-437 17,-12 24,-9 66,26 99,82 899,729 925,748 14,11 128,103 253,205 126,102 282,229 349,283 67,55 125,103 131,108 5,5 -269,8 -675,8 -454,-1 -661,-5 -615,-10 z"
       id="I_hate_nava_so_much_bro"
       style="fill:#fcc72e;fill-opacity:1"
       inkscape:label="path3" /><path
       d="m 4820,1596 c 0,-2 66,-57 147,-122 81,-66 244,-197 361,-291 117,-95 218,-173 224,-173 5,0 42,31 82,68 191,183 384,325 564,414 94,46 102,52 102,79 v 29 h -740 c -407,0 -740,-2 -740,-4 z"
       id="path4"
       style="fill:#fcc72e;fill-opacity:1" /><path
       d="m 3090,1475 c -200,-34 -385,-113 -570,-244 -67,-48 -277,-245 -311,-292 l -19,-27 81,-66 c 45,-37 83,-65 85,-63 3,2 -3,20 -11,40 -34,83 -12,179 57,244 81,77 206,55 196,-35 -4,-36 -48,-58 -80,-41 -13,7 -28,19 -34,27 -9,12 -15,9 -38,-19 -26,-30 -28,-38 -24,-100 3,-55 8,-73 28,-94 35,-37 118,-58 230,-58 226,1 402,88 671,332 131,118 216,176 298,201 125,39 221,18 285,-63 17.4151,-21.1936 30.5398,-79.1352 30,-103 -1,-68 9,-74 32,-18 72,172 -150,340 -506,384 -111,13 -306,11 -400,-5 z"
       id="big_black_men"
       sodipodi:nodetypes="ccccccccscsccccccccccc"
       style="fill:#fcc72e;fill-opacity:1"
       inkscape:label="path5" /><path
       d="m 0,1334 v -146 l 33,22 c 128,86 260,112 350,70 71,-33 101,-78 107,-159 l 5,-66 18,27 c 69,101 -6,225 -191,317 -58,29 -252,81 -301,81 -20,0 -21,-5 -21,-146 z"
       id="path6"
       style="fill:#fcc72e;fill-opacity:1" /><path
       d="m 6211,1360 c -120,-58 -232,-134 -341,-232 -102,-91 -200,-196 -200,-214 0,-12 160,-147 167,-141 2,2 -4,18 -12,35 -28,56 -30,122 -5,180 38,88 116,138 191,123 41,-8 74,-50 66,-83 -13,-49 -90,-56 -115,-12 -9,16 -12,16 -28,4 -41,-35 -56,-122 -30,-184 17,-41 75,-71 168,-86 65,-10 195,-4 217,10 8,4 11,100 9,323 l -3,318 z"
       id="path7"
       style="fill:#fcc72e;fill-opacity:1" /><path
       d="M 1024,1129 C 859,996 714,877 700,863 l -25,-25 35,21 c 92,53 278,67 426,32 173,-42 323,-132 528,-317 233,-211 346,-259 453,-194 35,21 51,68 38,117 l -6,26 -19,-31 c -15,-24 -27,-32 -47,-32 -88,1 -90,109 -2,144 55,22 136,20 184,-4 21,-11 40,-19 41,-17 1,1 -82,70 -184,152 -103,83 -322,260 -488,393 -166,133 -303,242 -306,242 -3,0 -140,-108 -304,-241 z"
       id="path8"
       style="fill:#ff160d;fill-opacity:1" /><path
       d="m 4699,1297 c -47,-40 -139,-115 -204,-167 -237,-191 -335,-273 -331,-277 2,-3 15,2 28,10 79,51 278,62 431,23 174,-44 313,-130 529,-324 149,-134 198,-168 278,-193 77,-24 127,-19 170,18 26,21 30,32 30,73 0,27 -4,52 -10,55 -5,3 -10,0 -10,-8 0,-21 -34,-47 -62,-47 -51,0 -75,62 -42,109 33,46 131,65 214,41 34,-10 34,-9 15,9 -11,10 -182,148 -380,307 -198,158 -403,323 -456,366 -53,43 -100,78 -105,77 -5,0 -48,-33 -95,-72 z"
       id="path9"
       style="fill:#ff160d;fill-opacity:1" /><path
       d="m 836,820 c -56,-15 -112,-49 -125,-77 -18,-39 -13,-124 9,-160 23,-39 32,-41 52,-11 18,28 75,29 94,3 39,-54 -4.32475,-124.01825 -80,-117 -59.65084,5.53212 -102.67808,30.51187 -147,90 -46,73 -47,142 -2,251 5,13 -34,-16 -142,-102 -29,-24 -29,-25 -11,-51 31,-48 238,-244 318,-301 100,-73 264,-158 375,-196 285,-96 712,-74 932,48 72,40 146,109 162,150 15,41 13,106 -5,142 -23,43 -28,39 -21,-13 9,-56 -19,-123 -67,-159 -102,-78 -270,-51 -423,67 -22,16 -87,73 -145,125 -183,164 -303,241 -445,287 -89,29 -259,41 -329,24 z"
       id="path10"
       sodipodi:nodetypes="cccccsccccccccccccccc"
       style="fill:#ff160d;fill-opacity:1" /><path
       d="m 4035,755 c -49,-41 -91,-79 -93,-85 -7,-21 268,-282 367,-348 108,-73 248,-142 356,-177 338,-111 826,-54 1012,118 79,73 100,140 66,215 l -17,37 -6,-60 c -6,-70 -17,-91 -64,-133 -106,-93 -287,-57 -462,90 -28,24 -91,79 -140,123 -154,139 -275,214 -429,266 -57,19 -92,23 -185,24 -175,0 -249,-33 -266,-121 -8,-46 2,-96 27,-129 l 21,-26 24,22 c 30,28 73,28 96,-1 23,-28 23,-52 1,-79 -25,-30 -81,-41 -128,-25 -117,40 -169,186 -110,312 13,28 23,52 22,51 -1,0 -42,-34 -92,-74 z"
       id="path11"
       style="fill:#ff160d;fill-opacity:1" /><path
       d="m 6100,560 c 91,-73 173,-139 183,-148 16,-14 17,-8 17,120 v 136 l -102,-5 c -92,-5 -161,2 -238,23 -14,4 49,-53 140,-126 z"
       id="path12"
       style="fill:#fcc72e;fill-opacity:1" /><path
       d="M 173,439 0,298 V 149 0 h 608 l 607,1 -59,20 C 930,99 684,264 424,512 c -40,37 -73,68 -75,68 -2,-1 -82,-64 -176,-141 z"
       id="I_love_men"
       style="fill:#ff160d;fill-opacity:1"
       inkscape:label="path13" /><path
       d="M 3630,429 C 3528,347 3382,229 3306,167 3229,105 3153,43 3136,28 L 3105,1 3900,0 h 795 l -81,28 c -109,38 -273,127 -385,207 -88,64 -344,279 -383,324 -11,11 -22,21 -25,21 -3,0 -89,-68 -191,-151 z"
       id="hail_traditional_european_heraldry"
       style="fill:#ff160d;fill-opacity:1"
       inkscape:label="path14" /><path
       d="m 2333,550 c 33,-47 41,-75 42,-140 0,-54 -5,-73 -29,-115 C 2269,164 2114,61 1925,14 1884,4 1972,2 2448,1 c 314,-1 572,1 572,4 0,2 -133,111 -296,242 -435,349 -411,331 -391,303 z"
       id="path15"
       style="fill:#ff160d;fill-opacity:1" /><path
       d="m 5827,515 c 22,-40 25,-55 21,-114 -3,-58 -9,-77 -39,-122 -20,-30 -57,-75 -83,-100 C 5672,125 5528,50 5425,21 L 5355,1 h 473 l 472,-1 -1,83 v 82 l -195,155 c -108,85 -220,174 -249,198 l -54,43 z"
       id="path16"
       style="fill:#ff160d;fill-opacity:1" /></g><metadata
     id="metadata1"><rdf:RDF><cc:Work
         rdf:about=""><dc:title>Te Kōwhaiwhai o Te Tai Tokerau</dc:title><dc:date>August 2024</dc:date><dc:creator><cc:Agent><dc:title>Pýrbor/Kleosfellow</dc:title></cc:Agent></dc:creator><dc:rights><cc:Agent><dc:title>https://pyr.bearblog.dev/pful/</dc:title></cc:Agent></dc:rights><dc:source>https://pyr.bearblog.dev/aug24/</dc:source><cc:license
           rdf:resource="https://pyr.bearblog.dev/pful/" /></cc:Work></rdf:RDF></metadata></svg>
