<?xml version="1.0" encoding="UTF-8" standalone="no"?>
<!-- Creator: CorelDRAW -->

<svg
   xml:space="preserve"
   width="2100"
   height="1000"
   style="fill-rule:evenodd"
   viewBox="0 0 525 250"
   version="1.1"
   id="svg2"
   inkscape:version="1.3.2 (091e20e, 2023-11-25, custom)"
   sodipodi:docname="tajik.svg"
   inkscape:export-filename="tajik.png"
   inkscape:export-xdpi="96"
   inkscape:export-ydpi="96"
   xmlns:inkscape="http://www.inkscape.org/namespaces/inkscape"
   xmlns:sodipodi="http://sodipodi.sourceforge.net/DTD/sodipodi-0.dtd"
   xmlns="http://www.w3.org/2000/svg"
   xmlns:svg="http://www.w3.org/2000/svg"
   xmlns:rdf="http://www.w3.org/1999/02/22-rdf-syntax-ns#"
   xmlns:cc="http://creativecommons.org/ns#"
   xmlns:dc="http://purl.org/dc/elements/1.1/"><metadata
   id="metadata749"><rdf:RDF><cc:Work
       rdf:about=""><dc:format>image/svg+xml</dc:format><dc:type
         rdf:resource="http://purl.org/dc/dcmitype/StillImage" /></cc:Work></rdf:RDF></metadata><sodipodi:namedview
   pagecolor="#ffffff"
   bordercolor="#666666"
   borderopacity="1"
   objecttolerance="10"
   gridtolerance="10"
   guidetolerance="10"
   inkscape:pageopacity="0"
   inkscape:pageshadow="2"
   inkscape:window-width="1920"
   inkscape:window-height="1017"
   id="namedview747"
   showgrid="false"
   fit-margin-top="0.2"
   fit-margin-right="0.2"
   fit-margin-bottom="0.2"
   fit-margin-left="0.2"
   inkscape:zoom="0.5"
   inkscape:cx="1035"
   inkscape:cy="436"
   inkscape:window-x="-8"
   inkscape:window-y="-8"
   inkscape:window-maximized="1"
   inkscape:current-layer="layer3"
   inkscape:showpageshadow="0"
   inkscape:pagecheckerboard="0"
   inkscape:deskcolor="#505050" />
 <defs
   id="defs4">
  <style
   type="text/css"
   id="style6">
   
    .str0 {stroke:#E5AB19;stroke-width:0.0403}
    .str1 {stroke:#8B632D;stroke-width:0.0933}
    .fil2 {fill:#006300}
    .fil7 {fill:#007BC5}
    .fil5 {fill:#3E4095}
    .fil9 {fill:#CC9933}
    .fil4 {fill:#CE0000}
    .fil1 {fill:#F8C300}
    .fil0 {fill:#FAC300}
    .fil6 {fill:#FEFEFE}
    .fil3 {fill:white}
    .fil8 {fill:#F8C300;fill-rule:nonzero}
   
  </style>
 
   
   
   
   
   
   
   
   
   
   
   
   
   
   
   
   
   
   
   
   
   
   
   
   
   
   
   
   
   
   
   
   
   
   
   
   
   
   
   
   
   
   
   
   
   
   
   
   
   
   
   
   
   
   
   
   
   
   
   
   
   
   
   
   
   
   
   
   
   
   
   
   
   
   
   
   
   
   
   
   
   
   
   
   
   
   
   
   
   
   
   
   
   
   
   
   
   
   
   
   
   
   
   
   
   
   
   
   
   
   
   
   
   
   
   
   
   
   
   
   
   
   
   
   
   
   
   
   
   
   
   
   
   
   
   
   
   
   
   
   
   
   
   
   
   
   
   
   
  </defs>
 <g
   inkscape:groupmode="layer"
   id="layer3"
   inkscape:label="bg"
   style="fill-rule:evenodd"><rect
     width="262.5"
     height="250"
     x="0"
     y="0"
     fill="#000000"
     id="rect2"
     style="fill-rule:evenodd;stroke-width:0.799766" /><rect
     width="262.5"
     height="250"
     x="262.5"
     y="-1.4305115e-06"
     fill="#cc0000"
     id="red"
     style="fill:#ffffff;fill-opacity:1;fill-rule:evenodd;stroke-width:0.799763"
     inkscape:label="red" /></g><g
   id="Layer_x0020_1"
   transform="translate(-5.7736593,35.0246)"
   inkscape:label="lion"
   inkscape:groupmode="layer">
  <metadata
   id="CorelCorpID_0Corel-Layer" />
  
  
  <path
   id="body"
   class="fil8"
   d="m 213.07805,130.39034 c -2.09863,1.53037 -4.21068,2.24385 -6.74261,2.60454 0.36938,0.12154 0.73954,0.24071 1.10496,0.36541 -2.98181,1.75768 -5.05281,4.52086 -6.66289,7.52239 v 0 c -0.44199,0.82478 -0.88949,1.56352 -1.36305,2.22255 -2.4309,3.37644 -5.86969,4.20909 -9.90356,4.29828 l 3.52086,4.78763 c -4.10493,-2.00945 -9.09774,3.14596 -12.49785,1.54694 -0.41672,2.40644 -0.39622,4.83576 0.19573,7.21694 0.52959,2.13415 0.98816,5.57452 2.38277,6.88388 2.44746,2.37488 6.67946,2.06549 9.0859,0.55249 1.68111,-0.75769 4.38273,-1.79635 5.42297,0.43487 0.3228,0.68981 0.39936,1.4475 0.44277,2.19728 2.77738,-0.12471 2.95339,1.70322 3.01101,3.99049 0.0158,0.47434 0.0237,0.91079 0.071,1.26123 v 0.004 l 0.0315,0.25335 0.008,-0.001 c 0.25019,1.28017 0.99445,2.42539 1.49406,3.61715 h -25.11408 c -0.36939,-1.06312 -1.01501,-2.26674 -2.08601,-2.76633 -0.19969,-0.0931 -0.41042,-0.16022 -0.63615,-0.19416 h -0.002 c -4.20673,-0.62114 -5.13252,-3.12466 -6.62659,-6.67552 -2.54299,-6.0299 -4.4593,-13.75908 -10.5839,-17.13552 -2.68111,1.0947 -5.9218,0.23521 -7.61394,-2.15308 1.52404,-0.97948 2.62189,-1.89422 3.40089,-3.58953 -7.87518,2.3417 -13.76619,0.94394 -17.00608,-6.91389 2.20124,0.49092 4.29907,0.26283 6.45927,-0.38672 -4.393,-0.29677 -8.40794,-1.02921 -12.13795,-3.60216 l -0.001,-0.001 -0.004,-0.001 -0.0158,-0.008 -0.0158,-0.008 c -6.02596,-2.77425 -13.06139,-5.49243 -19.35333,-7.44742 v 0 h -10e-4 -0.001 c -1.64954,-0.51301 -3.18622,-0.8737 -4.64397,-1.03393 -1.08208,-0.12071 -5.09858,0.0237 -6.08913,0.83819 -2.638463,2.68268 -4.386663,4.83577 -5.082793,8.63051 -1.85394,4.13253 -4.921782,7.22563 -4.412706,12.07953 -0.08366,3.15466 1.039447,5.69054 1.816066,8.65735 h 10e-4 v 0 10e-4 c 0.33623,1.28173 0.68507,2.55245 1.08759,3.74817 1.17599,3.63451 3.7087,9.83412 8.159333,8.34164 1.5406,-0.36227 3.42141,-0.50749 4.72131,0.12072 1.04339,0.50432 1.27465,1.33383 1.76477,2.28016 v 0 l 0.11755,0.21467 c 2.19098,-1.28175 3.76316,0.5446 4.23909,2.55719 0.36384,1.53905 0.36938,3.30224 0.35832,4.4514 H 91.933464 c -0.403307,-1.66769 -1.179134,-2.6811 -2.86972,-3.08124 -0.651145,-0.15314 -1.421438,-0.33624 -1.942354,-0.6985 l -0.0046,-0.002 v 0.001 c -0.74662,-0.5225 -0.742673,-1.71821 -1.187035,-2.46641 v -0.001 l -0.0081,-0.008 c -0.580093,-0.96525 -1.427767,-1.71661 -2.265154,-2.45774 -0.34333,-0.30151 -0.685072,-0.60378 -1.003935,-0.92185 v 0 0 l -0.0012,-0.001 c -2.198865,-2.16966 -2.906827,-8.29664 -4.213837,-11.23346 -0.724535,-1.62508 -1.715052,-3.20517 -3.218579,-4.68108 -1.804231,-1.77108 -3.315653,-3.62504 -3.039416,-6.22564 -2.024444,1.69611 -3.617955,3.54691 -5.259602,5.6187 -1.990506,2.69374 -5.203558,5.20751 -6.943872,7.98885 -1.522475,2.67715 -0.184688,6.22249 2.199652,7.89728 1.272283,0.89581 2.167301,0.74822 3.655051,0.22573 1.792394,-0.63061 2.729239,-0.51539 3.723704,1.15704 1.145201,2.26518 1.706374,1.53196 3.533495,1.50038 2.005489,0.19022 3.078095,1.40172 3.615573,2.97234 0.529593,1.54694 0.555636,3.4443 0.44198,5.07964 H 54.909666 c -0.459353,-2.06705 -2.492474,-2.25726 -3.916279,-3.4743 -1.067081,-0.91001 -1.486963,-1.96444 -1.823973,-3.27618 -0.315708,-2.44197 -2.003915,-3.60613 -2.75766,-5.33223 -0.404886,-1.26833 -0.41831,-2.99601 -0.427773,-4.53506 -0.0042,-0.53747 -0.0083,-1.0505 -0.02373,-1.51142 v -0.008 c 0.385943,-3.13808 -1.90922,-7.63603 -1.483019,-9.84674 0.337809,-0.97552 1.434083,-1.46486 3.510606,-2.38988 3.35118,-1.49327 6.733138,-3.18306 8.871233,-6.29745 3.276984,-4.77026 1.910777,-10.85859 1.83581,-16.24602 -0.08375,-6.0299 0.617193,-11.6565 3.890231,-16.84743 -1.257286,0.41279 -2.507469,0.86109 -3.783684,1.21704 h -0.0014 l -0.0027,0.001 v 0 c -7.59895,2.12546 -20.7874,4.0765 -22.401425,-7.45924 -0.42147,-3.01101 0.585627,-6.299854 3.434837,-9.085914 3.411152,-3.1886 8.254027,-5.699228 12.546785,-8.209048 2.574545,-1.50748 4.954154,-2.79475 6.701559,-4.83576 v -0.001 h 0.0027 c 1.684273,-1.966828 1.855538,-4.668448 -0.195739,-6.427678 -3.326706,-2.84922 -8.196413,-1.21231 -11.244508,1.09468 -3.975478,3.0055 -6.492425,7.433208 -10.463157,10.461588 0.968411,-3.78211 -0.165745,-7.692088 0.07891,-11.512868 0.209148,-3.26358 1.920256,-6.19802 5.31957,-5.77498 2.161768,0.27072 3.272252,1.61402 3.370908,3.72608 3.741069,-2.3433 7.781262,-4.18228 12.278437,-2.68111 0.559595,0.18862 1.11759,0.42778 1.667705,0.72454 h 0.0027 l 0.0014,10e-4 v 0 c 5.613962,3.01495 6.028325,9.813588 2.044956,14.067678 -1.20362,1.28491 -2.707139,2.33382 -4.269084,3.31723 -5.091479,3.198848 -10.793061,5.508998 -15.208934,9.701518 -2.009448,1.908434 -2.751343,5.723704 -0.718222,7.868884 h 0.0014 v 0 c 2.80265,2.9534 7.916231,1.2486 11.093773,-0.13812 0.539052,-0.2352 1.039448,-0.47197 1.477486,-0.69139 l 0.0014,-0.001 c 2.403282,-1.20598 4.399306,-2.76713 6.481361,-4.39772 2.143614,-1.67718 4.192531,-3.545344 6.535827,-4.936794 0.913959,-0.54301 1.98339,-0.81609 2.945493,-1.26518 v 0 h 0.0012 l 0.0012,-0.002 c 0.401735,-0.18628 0.731647,-0.34807 1.063929,-0.51064 1.20676,-0.58958 2.400907,-1.17364 3.402472,-1.37489 h 0.0023 c 2.231216,-0.44593 4.598185,-0.4854 7.00541,-0.52645 h 0.02371 c 1.748196,-0.0316 3.518499,-0.0158 5.272219,-0.004 3.415903,0.0237 7.188521,0.23284 10.594941,-0.43328 -2.69766,-3.127048 -5.141976,-6.975448 -5.618686,-11.257148 2.868936,1.65112 5.841246,2.63847 8.913829,3.20516 7.31877,1.35515 15.28946,0.6606 22.68715,0.38831 9.03144,-0.33228 18.08025,-0.98894 27.12905,-0.78136 -1.17598,-1.20204 -1.79633,-2.3733 -2.10493,-4.035468 5.36063,0.895808 5.3622,-0.86186 7.38663,-3.93837 v 0 l 0.31886,-0.34333 c -1.74268,-0.20126 -3.38668,-1.58009 -5.1341,-1.33226 l -0.004,0.002 h -0.001 c -1.14599,0.16415 -1.96524,1.1752 -2.61718,2.05757 -0.81135,1.10101 -1.02997,1.50197 -2.22095,0.50354 -2.42698,-2.03469 -3.37802,-3.8192 -3.37802,-7.10408 0.53197,0.21389 3.96205,2.36146 4.74421,1.3662 0.96684,-1.23596 -2.96838,-6.13487 -4.03309,-6.1333 -1.84527,0.002 -1.83974,3.39774 -1.73005,4.47981 l 0.005,0.0473 c -2.2123,-1.68111 -3.84526,-5.11043 -5.0749,-7.56185 -0.82242,-1.64403 -1.18232,-3.31566 -1.79399,-5.02835 v 0 -10e-4 l -0.002,-0.002 c -0.16416,-0.4554 -0.39147,-0.82082 -0.61324,-1.17679 -0.84137,-1.352773 -0.93132,-2.348823 0.0946,-3.519287 0.70954,-0.807404 3.29119,-1.443543 5.72763,-2.186227 2.10258,-0.637727 4.14594,-1.479072 6.24063,-2.152302 1.93683,-0.623513 3.94392,-1.397776 5.10095,-3.035473 1.18468,-1.678747 2.73478,-1.707159 4.48929,-2.091526 3.03785,-0.664554 4.9439,-0.858709 8.0133,0.285709 -0.0395,-0.921849 -0.14206,-2.784491 0.81135,-3.326709 0.71587,-0.408834 1.66218,-0.114439 2.44197,-0.284132 1.12152,-0.242301 2.22412,-0.800305 3.15937,-0.926585 1.89342,-0.259665 3.8208,0.500387 5.53663,1.203613 1.80424,0.740322 3.61558,1.666118 5.57687,1.890266 1.87923,0.212309 5.88865,3.734755 7.83809,3.651094 1.48145,-0.06315 3.53746,-1.920258 5.14596,-2.272265 h 0.001 c 0.26518,-0.05525 0.53353,-0.102597 0.80423,-0.12313 -1.58404,4.891797 1.26993,7.912282 4.78131,10.838051 4.50743,3.753703 5.27223,6.772603 3.05993,11.888563 2.54852,-2.61796 4.51298,-3.19965 8.18696,-2.4388 -1.52405,4.60688 1.1247,8.23192 2.55955,12.46154 1.35595,4.00942 1.52406,7.651038 -0.25731,12.253188 1.43804,-0.85554 2.71269,-1.16415 4.39301,-0.99289 -2.76477,4.808158 -0.92896,9.901208 -0.83187,14.999012 -0.0789,2.13021 -0.49645,4.1791 -1.14917,6.20118 3.31883,1.02682 4.67634,-0.51066 7.22169,-1.31807 3.10808,-0.50433 2.67873,-3.30064 2.14203,-5.61948 -0.40804,-1.759264 -0.37095,-5.901274 2.11994,-6.369294 2.04971,-0.28256 1.6898,0.0158 1.36937,-1.75215 0.16731,-1.33937 2.82236,-0.99999 3.60451,-0.93999 0.68666,0.0553 1.36937,0.10267 2.06549,0.0316 1.1097,-0.1144 1.93999,-0.82637 2.80185,-1.45303 0.38991,8.61157 0.71348,17.293364 -0.82635,25.822834 -1.39698,-0.1381 -4.08361,-0.50431 -5.1491,0.75138 h -10e-4 l -0.001,0.005 v 0 c -0.146,0.17207 -0.26676,0.31729 -0.38119,0.45541 -0.7277,0.87371 -1.21231,1.45934 -1.78768,1.69769 -1.75136,0.57536 -3.81525,-0.26677 -5.65816,1.07655 -3.77422,1.90682 -7.41111,6.99989 -10.66994,9.37712 l -0.001,-0.002 z"
   inkscape:connector-curvature="0"
   style="fill:#f8c300;fill-rule:nonzero;stroke-width:7.89255"
   inkscape:label="body" /><path
   id="outline"
   class="fil9"
   d="m 194.79889,44.140556 c -0.57851,1.071018 -0.82398,2.180712 -0.81925,3.315657 0.008,2.283313 1.07656,4.165686 2.59746,5.673176 2.0844,2.065458 4.92022,3.696071 6.11198,7.104871 0.57853,1.65269 0.17364,4.88391 -0.1129,7.18854 1.57142,-0.20757 2.76318,-1.77425 4.23752,-2.31331 1.14757,-0.4183 2.40643,-0.59589 3.5485,-0.57141 -0.62351,1.40012 -0.83583,2.68662 -0.78531,3.9147 0.0986,2.38038 1.43249,4.16569 2.22885,6.44188 1.11757,3.19649 1.95893,6.216978 1.45539,10.207448 -0.21389,1.7111 -0.60852,3.44588 -0.8753,4.96046 1.19967,-0.22573 2.40171,-0.45303 3.60059,-0.68112 -0.40803,1.343308 -0.51223,2.696098 -0.49013,4.067818 0.0395,2.75371 0.45698,4.95336 0.25889,7.108044 -0.34176,3.72212 -1.28177,6.66209 -2.78372,9.19797 -1.16967,1.97313 -2.84764,3.57216 -4.1128,5.94545 0.79161,0.0395 2.15151,-0.10267 3.82157,-0.4183 -2.65347,1.83581 -2.85473,7.51292 -5.64081,11.92248 -1.26675,2.00312 -3.46089,3.6937 -6.07093,4.66764 1.25568,0.6835 2.51298,1.36384 3.76947,2.04653 -6.06542,3.91236 -6.16093,8.54134 -10.23743,10.64548 -2.69608,1.38988 -6.84679,1.93684 -9.0054,0.65666 0.37174,2.16966 3.30777,2.73556 4.28171,5.60056 -4.11201,-1.24781 -5.80024,2.77817 -9.47185,0.87528 -1.49327,-0.77426 -2.27463,-2.68268 -2.20913,-6.2722 -4.55243,7.92411 -11.36605,3.46325 -17.11814,4.6203 -2.80975,0.5651 -4.49402,2.8705 -8.42925,1.23123 2.10969,-1.72136 3.22252,-3.9439 3.33223,-6.66446 -1.63059,0.0632 -4.15857,1.72768 -6.05989,2.09941 -4.67554,0.91395 -8.54132,-0.20362 -10.92171,-4.57136 3.12071,0.22966 4.99282,-0.71586 5.91229,-2.68663 -8.74651,-0.99604 -15.97608,-2.95655 -15.90741,-9.56498 h 8.38266 l -0.59272,-1.51696 h -12.47098 l -2.2612,-3.83812 h 13.55229 l -1.00157,-1.60613 c -2.43485,0.16968 -4.26514,0.0971 -5.97782,-0.28019 -4.13095,-0.90685 -8.15853,-2.95496 -11.34001,-5.73314 -1.98103,-1.72927 -3.06863,-3.26831 -2.7908,-4.11755 0.39146,-1.18862 1.44432,-2.55797 9.23505,-1.71663 -0.14364,-0.50196 -0.33147,-1.11364 -0.4759,-1.61561 h -12.03536 l -2.60769,-4.08596 12.4276,-0.54853 -0.44988,-1.24861 c -9.2619,0.88081 -14.80798,-3.15465 -16.66195,-5.958884 -1.68112,-2.54456 -0.28571,-3.32277 2.16413,-3.35987 2.19019,-0.0316 5.68422,-0.20125 10.82227,-0.0158 l -0.62509,-1.58719 -16.481243,0.008 c -2.05443,-1.6235 -4.36615,-5.082808 -5.22721,-7.845988 2.17911,1.31016 4.98649,1.92026 7.809673,2.19414 6.68499,0.65191 13.79066,0.1547 20.48905,-0.12858 4.5919,-0.19416 9.18693,-0.54697 13.77093,-0.7577 3.79867,-0.17363 7.5871,-0.21071 11.3637,-0.33779 5.97387,-0.1981 14.06925,-0.62194 19.3841,1.81528 2.06705,0.94791 4.16646,2.65506 5.54925,4.694488 1.47038,2.17124 2.15862,4.72211 2.07969,7.14196 -0.0551,1.614064 -0.82398,3.363834 -2.10574,4.690584 -3.9076,4.05201 -8.86095,3.17908 -12.19083,-0.77427 -0.71823,-0.85081 -1.23203,-2.11599 -1.3228,-3.31174 -0.12003,-1.595074 0.36306,-3.149124 1.43803,-3.794744 0.83583,-0.50195 2.39935,-0.77109 3.58401,0.54697 0.20362,-1.92185 -2.92023,-3.31014 -5.27222,-1.73005 -1.29674,0.86976 -2.29675,2.49482 -2.35831,4.54295 -0.0394,1.400944 0.35596,2.999974 1.39936,4.692134 4.00311,6.49634 12.0243,6.9778 16.96978,1.42934 1.5714,-1.76161 2.53035,-4.15463 2.61085,-6.235124 0.10967,-2.80264 -1.04498,-6.03385 -3.08205,-8.2785 -1.41117,-1.555618 -3.10967,-2.830248 -4.98887,-3.791568 -3.21227,-1.64719 -6.31168,-2.19889 -9.84517,-2.43407 -1.97235,-0.13107 -3.9518,-0.26362 -5.90915,-0.81767 -1.81134,-0.51539 -3.44747,-1.26123 -4.378,-3.00549 3.12467,0.25178 4.55557,-0.18388 5.36535,-0.924988 1.34805,-1.23914 1.16179,-3.3204 3.85868,-4.47035 -2.14047,-0.0158 -3.87762,-1.13259 -4.92021,-1.40092 -1.19574,-0.30623 -1.9984,-0.45936 -2.71662,-0.31491 -1.12864,0.22176 -2.01655,1.13967 -2.67558,2.01653 -0.95501,1.27624 -0.93289,1.19021 -2.12704,0.15708 -1.35989,-1.17916 -3.06705,-3.5414 -2.85395,-5.33064 0.85398,0.37726 2.38276,1.28728 3.62346,1.64244 0.81531,0.23283 1.76873,-0.80267 1.61167,-1.59746 -0.0158,-0.0916 -0.0473,-0.17915 -0.0971,-0.2636 v 0 l -0.002,-10e-4 -0.001,-0.002 c -4.51034,-8.00042 -1.60005,-2.72806 -1.8879,-3.23201 -0.90844,-1.59665 -1.73874,-2.86419 -3.00945,-2.59902 -1.9455,0.40648 -2.28173,2.55087 -2.36143,4.06152 -1.0655,-1.25491 -2.06707,-3.76475 -2.97077,-5.41981 -0.61009,-1.11759 -0.7853,-1.18231 -1.22018,-2.12233 -0.2202,-0.47986 -0.3599,-1.14204 -0.24388,-1.75607 0.1547,-0.82241 0.54064,-1.87922 0.40805,-2.35672 -0.16417,-0.58168 -1.10813,-0.41437 -1.59509,0.4183 -0.071,-0.75216 -0.68822,-2.02681 -0.73322,-2.15309 -0.31175,-0.876863 -0.37096,-1.432503 0.28886,-2.184652 1.02288,-1.164159 4.02443,-1.693753 5.48534,-2.145205 2.83183,-0.873706 5.66762,-1.782134 8.50895,-2.909186 1.36778,-0.542219 2.27385,-1.179152 3.13097,-2.391448 0.91002,-1.287273 1.64165,-1.318844 3.04258,-1.565091 1.46644,-0.255719 3.24859,-0.84766 4.83814,-0.873705 1.38277,-0.02367 3.14914,0.563527 4.22567,1.310163 0.37805,-0.311756 0.63615,-0.505914 0.77741,-1.022876 0.18863,-0.683494 0.0789,-1.590348 0.69612,-2.14914 0.62746,-0.565897 1.60534,-0.569053 2.47431,-0.727694 1.1247,-0.205995 2.41828,-0.653502 3.76475,-0.487759 1.74426,0.217045 3.50036,1.169676 5.16647,1.760038 1.56666,0.553268 3.22333,1.223345 4.53507,1.518527 1.46484,0.326752 2.614,1.22887 4.1349,1.981029 1.33147,0.65745 2.69135,1.21861 4.07256,1.441184 0.83423,0.135753 1.38987,-0.897385 2.10414,-1.451444 0.91869,-0.711118 1.89975,-1.315687 2.61559,-1.48301 l 0.002,-7.88e-4 z m 21.2278,65.718904 c 1.38437,-0.0315 2.51697,0.0158 3.61244,-0.24072 1.14362,-0.26518 2.24384,-0.89029 3.65267,-1.21072 1.60219,-0.36543 2.94548,-0.84687 3.49481,-2.03944 0.90055,-1.96286 0.15234,-3.80577 -0.18311,-5.76156 -0.13105,-0.762424 -0.12872,-1.525624 0.2423,-2.583234 0.26915,-0.76005 0.63851,-1.37882 1.00948,-1.47037 v -0.002 h 0.008 v 0 c 0.75216,-0.15864 1.23913,-0.15706 1.54298,-0.15706 1.03156,0.004 1.47039,-0.6022 1.24071,-1.62508 -0.30859,-1.38039 0.14364,-0.97552 1.56668,-0.97 0.79872,0.004 1.71347,0.18628 2.66058,0.09 0.79319,-0.082 1.17204,-0.43646 1.68822,-0.69059 0.0158,0.65824 0.10089,1.33779 0.16099,1.99048 l -4.44824,0.56196 0.0158,0.70718 4.47271,0.68112 c 0.008,0.4854 0.0158,1.13258 0.0237,1.61562 l -4.30065,0.0236 0.0158,0.71271 4.29356,1.130214 c 0.002,5.0599 -0.22179,10.05668 -1.10654,15.17263 -1.56508,-0.0789 -3.53349,-0.36385 -4.75527,0.89501 -1.05286,1.08048 -1.47826,1.84763 -1.96681,2.12151 -0.86976,0.49093 -1.61246,-0.0632 -4.13256,0.49644 -1.07495,0.23994 -2.11599,0.78375 -3.18621,1.56352 -1.03391,0.74979 -2.08836,1.71583 -3.22568,2.83896 l -0.006,0.004 -10e-4,0.001 h 10e-4 c -0.46487,0.46092 -0.92027,0.92184 -1.3733,1.38119 -3.43642,3.47745 -6.70158,6.78364 -11.80252,6.62657 3.66215,-1.9834 5.097,-5.10253 6.06544,-8.11748 1.50351,-4.68659 1.88237,-9.11983 7.19009,-8.82465 -1.02286,-0.93842 -2.48693,-1.48143 -3.86182,-1.89184 0.55564,-1.05997 1.01339,-2.06707 1.39144,-3.02995 z m -8.66047,23.22855 c 4.48137,-0.63692 7.53737,-3.72608 10.72833,-6.95886 0.44911,-0.4562 0.90292,-0.91237 1.3599,-1.36618 l 0.005,-10e-4 0.001,-0.002 v -10e-4 c 1.09707,-1.08444 2.10099,-2.0055 3.05205,-2.69768 0.91238,-0.66455 1.7774,-1.12312 2.63769,-1.31333 2.03234,-0.45382 3.28252,-0.14759 4.34407,-0.59036 0.72532,-0.30228 1.28332,-1.0647 2.25727,-2.22017 0.96288,-1.14362 3.90681,-0.76636 5.16566,-0.65509 1.62508,-8.82624 1.25571,-17.598804 0.84926,-26.517374 -0.9558,0.63217 -1.82083,1.53192 -3.04339,1.659 -1.49643,0.15469 -3.00785,-0.28887 -4.51532,0 -0.56905,0.10818 -0.98499,0.30385 -1.20361,0.64719 -0.1697,0.26518 -0.2202,0.61957 -0.13023,1.08602 0.16889,0.88395 -0.0238,0.84529 -0.60299,0.86895 -0.40805,0.0158 -0.81531,0.0632 -1.18074,0.25574 -0.71662,0.38042 -1.2849,1.25174 -1.63612,2.25174 -0.86028,2.44274 -0.15311,3.457744 0.20836,5.686604 0.26914,1.659 0.11604,3.4727 -2.25331,3.8547 -1.40092,0.22731 -2.6661,1.01814 -3.99285,1.30148 -0.91867,0.19652 -1.87131,0.0473 -2.87131,0.0238 0.71507,-2.20677 1,-4.16885 1.0655,-5.9644 0.21388,-5.992044 -2.03155,-10.106414 0.97789,-15.201852 -1.47434,-0.19416 -3.0118,-0.13969 -4.31013,0.63219 3.79632,-9.809638 -2.82789,-15.451228 -3.02443,-20.356458 -0.0553,-1.39382 0.10969,-2.72767 0.56905,-3.98336 -1.46484,-0.29126 -2.8563,-0.67167 -4.15936,-0.44988 -1.2999,0.2202 -2.51063,0.84923 -3.6148,1.98182 0.94318,-2.17914 0.98816,-4.12308 0.49725,-5.8547 -0.74269,-2.61717 -3.1152,-4.224093 -5.07412,-5.923369 -3.40329,-2.954969 -5.2596,-5.576871 -3.65505,-10.112722 -1.23518,0.004 -2.68821,0.526433 -3.91234,1.233604 -1.12311,0.649557 -1.73951,1.147578 -2.38669,1.17599 -0.64719,0.02367 -1.32596,-0.414359 -2.57377,-1.168096 -1.66217,-1.007879 -3.39774,-2.273843 -5.22566,-2.482998 -3.16492,-0.35832 -7.00228,-3.139655 -10.37872,-3.147549 -1.51537,-0.0015 -2.94075,0.671657 -4.41666,0.932901 -0.99051,0.176004 -2.10572,-0.06315 -2.59822,0.940791 -0.30386,0.619566 -0.46093,1.462489 -0.41122,2.608488 -1.2107,-0.449874 -2.32829,-0.892646 -3.6345,-0.877652 -1.6827,0.02367 -3.46799,0.604569 -5.07255,0.886335 -1.74267,0.30623 -2.60848,0.410411 -3.73553,2.007864 -0.73087,1.035501 -1.47907,1.548519 -2.64953,2.013389 -2.80581,1.113634 -5.62108,2.014972 -8.43477,2.882361 -1.72927,0.533529 -4.75923,1.082066 -5.96993,2.4609 -0.57222,0.651135 -0.79873,1.14757 -0.82476,1.6377 -0.0789,1.474333 0.86738,2.097843 1.29908,3.291983 0.15866,0.442 0.0238,1.00157 0.19023,1.42303 0.71823,1.85632 1.47906,3.52244 2.29672,5.02045 0.86031,1.57615 1.61009,3.10809 2.51299,4.41747 0.73876,1.06786 1.27783,1.49248 2.39304,2.08994 -0.18864,-1.03155 -0.23127,-3.21069 0.51538,-4.09544 0.42303,-0.4996 1.04655,-0.4475 1.52404,-0.19021 0.69614,0.37331 1.08603,1.17756 1.49643,1.80267 0.49802,0.75766 1.46643,2.01653 1.75372,2.8492 0.17364,0.50197 -0.20835,0.80029 -0.66769,0.75373 -0.58958,-0.0552 -1.33385,-0.56196 -1.45776,-0.61008 -0.89897,-0.35438 -1.96447,-0.75454 -2.68426,-1.05445 -0.0237,1.86895 0.10818,3.62347 1.13732,5.27852 0.49092,0.78927 1.1531,1.37805 2.32356,2.35989 1.08602,0.91001 1.60219,0.82241 2.10573,0.22335 0.87923,-1.04812 1.31174,-2.5035 2.9163,-2.73477 1.51853,-0.2186 3.38828,1.13812 4.61557,1.2786 -1.09707,1.18861 -1.61403,2.61006 -2.57298,3.26277 -1.08759,0.73954 -2.50746,0.92186 -4.93284,0.55801 0.20521,1.134168 0.45145,2.664528 1.8208,4.067818 -1.55009,-0.0316 -4.23356,-0.0158 -6.33218,0.0316 -2.69768,0.0632 -5.52716,0.0553 -7.48293,0.16654 -8.49396,0.47355 -16.99817,0.81845 -25.50557,0.90448 -6.79626,0.0711 -13.175823,-0.54458 -19.103126,-4.09623 0.20914,3.99283 2.763183,8.54526 5.434803,11.538908 -0.87371,0.16969 -2.08994,0.25177 -3.39773,0.29833 -3.817632,0.13813 -7.973846,-0.0158 -12.020363,0.0554 -2.429333,0.0395 -4.819191,0.0789 -7.072502,0.5296 -1.330683,0.2652 -2.953403,1.16809 -4.522435,1.90369 -1.074967,0.50353 -2.15704,0.7924 -2.972343,1.27622 -2.115995,1.25965 -3.920225,2.89026 -6.35666,4.796314 -2.147558,1.68191 -4.184624,3.29909 -6.645518,4.53189 -3.094671,1.55406 -9.328212,4.00784 -12.295021,0.88081 -1.928934,-2.03153 -1.212299,-5.71261 0.70717,-7.535024 4.382737,-4.15937 10.107992,-6.49082 15.171851,-9.673898 3.153082,-1.98182 6.070958,-4.23908 6.854683,-8.18299 0.781364,-3.945488 -1.123109,-7.719698 -4.645552,-9.609968 -4.014948,-2.15861 -8.397671,-1.40093 -12.303698,0.72454 -0.51302,0.27939 -1.028397,0.70639 -1.539043,1.02603 -0.117543,-2.75608 -2.511415,-3.56349 -4.289614,-3.59743 -3.320386,-0.0632 -4.673171,3.23754 -4.852339,6.0449 -0.172051,2.67717 0.33781,5.272228 0.313336,7.946238 -0.0083,1.28885 -0.12306,2.8855 -0.591147,4.19883 1.079706,-0.77741 2.105729,-1.64322 3.034685,-2.5556 1.7411,-1.71111 3.181489,-3.68661 4.862604,-5.449818 1.94157,-2.03707 4.132532,-4.01809 6.913866,-4.90679 1.114429,-0.44593 2.619548,-0.60063 4.065455,-0.39937 4.132545,0.58011 5.984924,4.25409 3.279357,7.412678 -2.168873,2.53351 -6.456899,4.54295 -9.039338,6.0749 -2.130202,1.26518 -4.280134,2.540618 -6.317201,3.949428 -2.617161,1.80975 -5.456908,3.9013 -6.775754,6.90126 -0.783724,1.781344 -0.98894,3.739484 -0.693747,5.623444 1.027611,6.56739 6.388224,9.1956 12.47023,9.12456 3.207522,-0.0316 7.416622,-0.89027 10.319499,-1.70162 1.296744,-0.36306 2.335405,-0.74269 3.173597,-1.01656 -1.88869,2.99443 -2.845266,6.3085 -3.280143,9.83805 -0.520911,4.25013 -0.278612,8.80412 0.0083,13.49072 v 0.0238 c 0.346487,3.98258 -0.5659,6.94782 -2.099411,9.18062 -2.142039,3.11756 -5.437965,4.72922 -8.772577,6.21697 -4.273816,1.90526 -4.518475,2.0126 -2.733185,8.47738 0.358323,1.2936 0.507485,2.6369 0.563526,3.98337 0.07891,1.81765 -0.09464,4.36774 0.46487,6.11751 0.408046,1.28019 1.458543,2.26518 2.097052,3.42617 0.57695,1.05209 0.662182,2.3283 1.13969,3.43247 0.64008,1.47275 1.998382,2.45142 3.419842,3.09783 0.69612,0.31649 1.567451,0.9029 1.749778,1.71426 v 0 l 0.128578,0.57852 h 22.644374 c 0.265188,-3.41984 -0.01577,-8.12302 -4.254877,-8.52396 -1.330682,-0.12471 -1.764768,0.14681 -2.18624,-0.0632 -1.131,-0.55565 -1.270701,-2.29833 -2.606907,-2.84686 -1.507485,-0.62035 -3.089932,0.8524 -4.638452,0.66612 -1.527992,-0.18625 -3.617153,-2.50744 -3.902868,-4.16411 -0.247033,-1.42775 -0.341743,-2.71108 0.404885,-4.02281 0.688229,-1.21467 1.848432,-2.32357 2.853957,-3.28174 2.329872,-2.22569 4.129371,-4.89259 6.229586,-7.32901 0.80583,-0.93448 1.684277,-1.7774 2.617172,-2.55719 -0.05535,0.54063 0.03165,1.10102 0.227302,1.70163 0.474342,1.43092 1.62508,2.84131 2.942331,4.13412 2.960503,2.90684 3.90287,6.21853 4.759222,9.4908 0.589575,2.24858 0.960526,4.73315 2.673195,6.42296 1.084437,1.07338 2.436445,2.00551 3.233586,3.3338 0.490914,0.8161 0.460923,1.98894 1.263589,2.54931 0.951848,0.66612 2.602189,0.74583 3.138089,1.09311 1.011025,0.65429 1.395405,1.69374 1.625076,2.73318 h 21.865525 c 0.0237,-2.28962 0.0845,-7.70389 -3.21622,-7.95173 -0.48696,-0.0394 -1.00551,0.071 -1.52405,0.37805 -0.17522,-0.32674 -0.3899,-0.82634 -0.59904,-1.2052 -1.05445,-1.91235 -3.94548,-1.83027 -6.14909,-1.3149 -3.421443,0.80189 -4.729233,-1.74267 -6.482943,-4.8997 -1.08996,-1.95892 -1.81135,-4.46245 -2.4814,-7.01805 -0.38281,-1.4609 -0.921869,-2.88236 -1.205202,-4.30064 -0.578527,-2.89893 -0.602212,-5.77261 0.341743,-8.87517 0.583239,-1.92185 1.848429,-3.54141 2.636119,-5.3772 0.58246,-1.35278 1.07494,-2.71977 1.56508,-4.14359 0.83819,-2.43801 2.94785,-4.42536 4.442703,-6.54687 0.53907,-0.22968 1.07656,-0.40648 1.62351,-0.5209 2.61718,-0.55013 5.44034,-0.14207 8.71101,0.87527 3.51849,1.09312 7.07804,2.49246 10.58234,3.8563 2.97153,1.15705 5.90677,2.27227 8.74414,3.58007 2.70162,1.86421 6.09305,3.22963 10.32109,3.51534 -1.27385,0.22572 -3.59821,0.17599 -4.87286,0 2.32279,5.8397 6.19408,10.76544 16.94215,7.57132 -0.87527,1.89894 -2.27384,2.44906 -3.29829,3.14911 1.78134,2.73478 5.31328,3.54693 7.92886,2.47906 3.59664,1.98183 5.70315,5.46639 7.59895,10.01723 0.95498,2.29673 1.81527,4.65503 2.78133,6.94939 1.80029,4.27067 2.52088,6.18461 6.81126,6.81759 1.44593,0.21467 2.25727,1.93842 2.58718,2.96522 h 24.5711 1.06154 c -0.47908,-1.2841 -1.49565,-2.88235 -1.64955,-4.13253 v -0.002 0 c -0.1902,-1.57457 0.25573,-4.86576 -1.64164,-5.34326 -0.52564,-0.13024 -1.09471,-0.14759 -1.44987,-0.13024 -0.0789,-1.35121 -0.47197,-2.98338 -1.95498,-3.41117 -2.05206,-0.59352 -3.86735,0.80584 -5.85233,1.47592 -1.40172,0.47434 -2.94787,0.30781 -4.45376,0.0237 -2.39698,-0.45304 -3.62111,-1.46802 -3.93996,-3.83262 -0.16259,-1.20836 -0.52249,-2.11758 -0.87924,-3.2549 -0.3228,-1.03391 -0.53906,-2.11599 -0.62981,-3.13808 v -0.005 c -0.13107,-1.50037 -0.12003,-3.056 0.13969,-4.55084 l 0.0632,0.0316 c 3.16807,1.47432 8.63839,-2.88236 12.83802,-1.53353 l -3.64162,-4.95179 c 6.05438,-0.13424 8.62339,-2.17361 11.01484,-6.63447 1.58561,-2.95736 3.66766,-5.86971 7.01884,-7.68104 -0.20914,-0.0805 -0.41989,-0.15705 -0.63535,-0.22809 h 0.002 z m -27.98148,20.08575 c -0.42145,1.81291 -0.44593,3.75448 -0.2857,5.59029 v 0.004 c 0.10497,1.17441 0.34726,2.33856 0.69376,3.44982 0.33227,1.06156 0.6756,1.88238 0.82871,3.01338 0.25415,1.88397 0.75612,2.98813 2.28884,3.97942 h 0.002 c 0.8224,0.53196 1.83581,0.92739 2.96997,1.12706 1.26122,0.22021 3.10098,0.44593 4.78131,-0.0473 2.30383,-0.6772 4.4214,-2.1231 5.33063,-1.42777 0.83028,0.63219 0.0861,2.6006 0.87843,4.01178 0.79873,1.41751 1.77661,1.2123 1.60692,-0.67717 0.89344,-0.12472 1.13968,0.28728 1.22336,0.955 0.14443,1.12311 0.071,2.96286 0.17914,3.54533 0.13813,0.72216 0.4483,1.42144 0.73954,2.21229 h -1.87132 l -1.26518,-3.77186 -0.29675,-0.071 -0.39147,3.8413 h -1.68113 l -1.07495,-3.82868 -0.45856,-0.008 0.0158,3.83816 H 178.3931 c -0.63534,-1.34176 -1.85631,-2.7411 -3.40326,-2.9463 -3.46089,-0.46093 -4.06941,-2.19176 -5.64555,-5.92888 -0.93998,-2.23122 -1.79081,-4.51691 -2.68504,-6.76471 -1.69611,-4.2683 -3.62109,-7.95884 -7.60604,-10.29109 l -0.005,-0.005 c 1.05445,-0.49803 2.14202,-0.985 3.2612,-1.13259 2.44825,-0.32677 4.91863,0.3599 7.03384,0.47908 1.98814,0.11048 3.66766,-0.34096 4.72762,-0.74586 1.46094,-0.55563 2.57456,-1.3212 3.34331,-2.28883 0.3883,1.77424 1.06468,3.03311 1.96839,3.89024 v -0.001 z m -79.424313,-25.2238 v -0.0158 10e-4 l -0.0159,0.0158 c -0.59747,0.27939 -1.19098,0.61167 -1.79635,0.98814 -2.44038,1.52248 -4.64554,3.39932 -7.058288,4.9723 -3.018102,1.96842 -5.419815,4.52244 -8.374782,6.55714 -2.527994,1.74109 -5.397719,2.89971 -7.98017,4.56188 -2.421415,1.558 -4.704741,3.29357 -6.595007,5.48534 -2.071006,2.4009 -3.83578,5.03148 -6.132514,7.22562 -1.087582,1.03945 -2.337765,2.23122 -3.127022,3.61715 -0.924224,1.61956 -0.87529,3.23675 -0.571418,5.00151 0.460926,2.67399 2.474304,4.97785 5.329047,5.34013 0.313336,0.0394 0.629816,-0.17759 0.951043,-0.17523 h 0.0027 0.03945 0.0027 c 1.046553,0 2.08127,-0.6472 3.079674,-0.55249 0.858712,0.0821 1.104163,0.99052 1.385935,1.65509 0.205988,0.48064 0.471188,0.94788 1.056816,1.23518 0.868977,0.42699 1.969975,-0.17918 2.894987,-0.0916 2.546924,0.24703 2.983381,3.86972 2.924182,5.79313 h -1.877631 c -0.07975,-0.74981 -0.275455,-1.46802 -0.606148,-2.15153 -0.376475,-0.77188 -0.930535,-0.78926 -1.696121,-2.18623 l -0.227302,0.15706 c 0,1.46802 1.393047,2.61007 1.139688,4.18149 h -1.549189 c -0.1468,-0.8011 -0.344895,-1.32675 -0.559573,-1.84372 -0.276236,-0.66217 -0.65667,-0.83108 -0.830308,-2.49089 l -0.257294,0.0315 c -0.293602,0.58407 -0.257293,1.38279 -0.179151,1.84371 0.132577,0.78609 0.445928,1.43881 0.477495,2.46327 H 55.650788 c -0.176797,-1.04499 -1.291226,-1.74112 -2.210704,-2.16099 -1.071012,-0.48538 -2.188601,-1.21703 -2.674787,-2.33539 -0.500381,-1.1531 -0.585628,-2.44432 -1.198088,-3.56034 -0.596679,-1.08601 -1.647177,-2.02286 -2.003129,-3.22173 -0.478294,-1.61562 -0.314121,-4.07099 -0.38673,-5.72053 -0.06318,-1.44038 -0.223357,-2.87526 -0.608515,-4.26514 -1.447493,-5.24223 -1.266766,-5.32431 1.912364,-6.74259 3.597425,-1.60063 7.082771,-3.36775 9.38977,-6.72761 1.713468,-2.49405 2.735545,-5.77419 2.355133,-10.13957 h -0.0014 c -0.278598,-4.60294 -0.516952,-9.07485 -0.01573,-13.2058 0.500396,-4.06941 1.726105,-7.8152 4.370114,-11.05036 l -0.04733,-0.0395 0.852401,-1.01892 c -0.423842,-0.13575 -1.102592,-0.0554 -1.932893,0.13969 l -0.01573,-0.0158 -0.01573,0.0237 c -1.36226,0.32279 -3.124662,0.94551 -4.850765,1.42382 -3.179115,0.87842 -6.58239,1.7032 -9.954083,1.79633 -5.370877,0.1468 -10.302144,-1.7482 -11.362905,-7.58632 -0.317282,-1.74582 -0.09161,-3.64319 0.607728,-5.236704 1.214657,-2.75765 3.899709,-4.69055 6.302205,-6.35666 2.022857,-1.39936 4.169629,-2.67479 6.300618,-3.939978 2.819218,-1.67162 7.109605,-3.76711 9.451329,-6.49635 3.367749,-3.927318 0.860292,-8.552358 -4.143582,-9.214538 -1.660601,-0.22179 -3.375654,0.0994 -4.67713,0.54853 -2.685052,0.92342 -5.205932,2.72451 -7.11435,4.64713 -1.841328,1.856328 -3.384317,4.029938 -5.288791,5.832598 0.430934,-2.71662 -0.519338,-4.712648 -0.434878,-8.590258 0.06318,-2.17519 1.089956,-4.52243 3.527962,-4.61003 1.374885,-0.0473 2.670056,0.7861 2.718189,2.24069 0.04733,1.42145 -1.233597,2.73002 -3.621883,2.27227 0.865811,0.72216 1.794765,0.96288 2.722135,0.69611 2.076536,-0.60062 3.414324,-2.50035 5.246188,-3.51297 3.224105,-1.78135 7.252463,-2.07416 10.539711,-0.32676 3.082033,1.64008 4.749738,4.88471 4.064655,8.334548 -0.704798,3.55954 -3.415898,5.5745 -6.261162,7.35978 -5.154624,3.236748 -10.951701,5.621088 -15.408619,9.854658 -2.406441,2.284904 -3.134128,6.729184 -0.751374,9.238234 3.404848,3.58795 10.054326,1.19966 13.709363,-0.63219 2.539036,-1.27388 4.6345,-2.92655 6.849148,-4.65977 2.228858,-1.74662 4.299863,-3.367764 5.992029,-4.396154 v -10e-4 0 c 1.039451,-0.63062 2.221755,-0.85476 3.303822,-1.36779 1.322788,-0.62902 2.595077,-1.38277 4.039405,-1.67163 2.153096,-0.43094 4.444293,-0.50749 6.774181,-0.54301 4.018885,-0.0632 8.156951,0.15864 11.912227,0.0709 2.04495,-0.0473 3.77973,-0.18469 4.94073,-0.39778 2.037073,3.11282 3.994433,5.912304 6.567393,7.675524 1.70322,1.16808 3.57455,1.95892 5.61398,2.31329 l -4.53978,0.002 3.79156,6.45847 c 2.10258,4.16253 5.22566,9.47105 14.29263,12.15532 h -4.81841 l 3.90998,7.07803 0.76637,-0.004 c 0.73557,1.19256 1.61797,2.41433 2.66687,3.58638 -4.97545,-1.8366 -9.95724,-3.78607 -15.00372,-5.38508 -3.59191,-1.1397 -6.56581,-1.64718 -9.55078,-1.02052 -0.7853,0.16495 -1.54064,0.43173 -2.290433,0.78214 v 0.002 z m -2.35434,3.12466 c -1.0576,1.39302 -2.07969,2.85395 -2.51693,4.12465 -0.47986,1.39619 -0.96289,2.73161 -1.52405,4.0394 -0.81135,1.89026 -2.086005,3.55244 -2.688988,5.53584 -1.046552,3.438 -0.97948,6.61395 -0.318081,9.83727 0.27939,1.36226 0.79873,2.73161 1.165732,4.13255 0.699288,2.66215 1.430927,5.28248 2.636117,7.40004 2.24068,3.93839 3.7742,6.10095 7.980153,5.53348 1.82397,-0.24388 4.04652,-0.41989 4.63057,0.64008 0.3678,0.66455 0.55563,1.01813 0.69611,1.28018 0.26282,1.01261 0.57854,1.72768 0.94159,1.78529 0.92184,0.14363 0.40172,-1.33385 1.513,-1.38829 1.91078,-0.0946 2.03392,3.68186 2.02444,4.91467 h -1.52011 l -0.82871,-2.47588 h -0.16259 l -0.26676,2.47588 h -1.9834 l -0.89423,-3.42773 h -0.27544 l -0.25179,3.42773 H 92.876867 c -0.371736,-1.02287 -1.154657,-2.03547 -2.159391,-2.49088 v 0 l -0.0023,-0.001 c -0.321222,-0.14602 -1.895791,-0.52092 -2.610072,-0.84608 -0.671653,-0.30388 -0.801089,-1.64955 -1.202031,-2.31647 -0.852404,-1.41829 -2.072571,-2.36382 -3.244633,-3.48299 -1.591129,-1.52248 -1.962874,-3.83261 -2.501939,-5.88627 -0.908427,-3.46956 -1.827903,-6.98174 -5.07805,-10.17192 -1.172062,-1.14916 -2.184676,-2.37329 -2.572969,-3.5469 -0.337818,-1.02051 -0.160232,-2.03549 0.918681,-2.96051 0.38437,-0.33069 0.682702,-0.65349 1.112058,-0.92894 2.595077,-1.67007 5.475849,-2.83816 8.018839,-4.58952 2.943919,-2.02839 5.336149,-4.57531 8.341629,-6.53581 1.962888,-1.27939 3.787638,-2.74583 5.711048,-4.07652 z"
   inkscape:connector-curvature="0"
   style="fill:#bc8700;fill-opacity:1;stroke:#bc8700;stroke-width:0;stroke-dasharray:none;stroke-opacity:1"
   sodipodi:nodetypes="ccccccccccccccccccccccccccccccccccccccccccccccccccccccsccscccccsccccccccccccccccccccsccccccccccccccccccccccccccccccccccccccccscccccccccccccccccccccccccccccccccccccccccccccccccccccccccccccccccccccccccccccccsccccccccccccccccccccccccccccccccccccccccccccccccccccccccccccccsscccccccccccccccccccccccccccccccccccccccccccccccccscccccccccccccccccccccccccccccccccccccccccccccccccccccccccccccccccccsccsccccccccccccccccccccccccccccccccccccccccccccccccccccccccccccscccccccccccccccccccccccccccccccccccccccccscccccccccccccc"
   inkscape:label="outline" /><path
   id="ear"
   class="fil9"
   d="m 168.59563,44.882454 c 0.40095,0.10498 0.82083,0.192579 1.18626,0.399364 1.4317,0.80425 2.50431,2.423805 2.97391,4.457708 0.65508,-0.53353 1.22571,-1.45144 2.06311,-1.34173 1.01183,0.134177 1.92579,1.352779 2.5114,2.031545 1.88238,2.171233 -0.29675,2.355134 -1.14362,2.494833 -0.37489,0.06321 -0.4483,0.473549 -0.47749,0.816883 -0.0316,0.32989 0.50669,0.76162 0.81134,1.47747 0.86741,2.044983 0.0316,4.011803 -0.64955,6.028353 -0.46328,1.37883 -0.79952,2.6661 -1.62904,3.65504 -0.47591,0.57063 -1.2257,0.99289 -1.84921,1.37883 -0.65113,0.4041 -2.101,0.63613 -2.28173,1.08365 -0.0893,0.2257 -0.11755,0.64954 -0.10819,1.01497 0.008,0.42382 0.17918,0.86186 0.25416,1.32832 0.0891,0.56353 0.0237,1.06312 0.0158,1.45302 0.57458,-10e-4 1.00551,-1.88554 1.05287,-2.28331 0.0395,-0.37648 -0.0806,-0.86582 0.0798,-1.07812 0.46093,-0.61405 1.36619,-0.31018 2.086,-0.58011 0.76478,-0.28571 1.48854,-0.79637 2.13808,-1.50985 0.94159,-1.03707 1.54458,-2.47036 1.9976,-3.94706 0.51538,-1.67874 1.08287,-3.1736 0.77506,-4.95022 -0.1531,-0.87843 -0.52959,-1.868953 -1.09943,-2.774223 0.71821,-0.22889 1.33937,-0.35596 1.78135,-0.76874 1.33226,-1.237548 1.27622,-3.333816 -0.8674,-4.84129 -0.93842,-0.662183 -2.15071,-0.85634 -2.98181,-0.945531 -0.54616,-0.05524 -1.1081,-0.06318 -1.66926,-0.03948 -0.82635,-1.078118 -1.97236,-1.951824 -2.9092,-2.509037 -0.76241,-0.453034 -1.35593,-0.578525 -2.06311,-0.05525 l 0.001,-7.89e-4 z"
   inkscape:connector-curvature="0"
   style="fill:#bc8700;fill-opacity:1;stroke-width:7.89187;stroke-dasharray:none"
   inkscape:label="ear" /><path
   id="eye"
   class="fil9"
   d="m 165.25709,49.965252 c -0.10818,0.260458 -0.4554,0.410413 -0.81688,0.432521 -1.10653,0.07101 -2.9755,-1.206772 -3.92418,-1.689803 -1.07101,-0.546948 -2.0276,-1.132577 -2.77423,-1.145995 -0.48144,-0.0081 -1.01499,0.239144 -1.40092,0.693761 l -0.9479,1.116004 c -0.25966,0.307805 -0.18311,0.76478 -0.0158,0.956568 0.14525,0.168115 0.86346,0.04741 1.06157,0.09944 0.76874,0.201259 0.52247,0.685072 1.68111,0.726123 0.33938,0.01577 0.65112,0.03948 0.92737,-0.02371 0.36463,-0.07894 0.6393,-0.336229 0.94789,-0.361479 1.07812,-0.0931 2.38987,0.451452 3.33381,0.807408 0.39149,0.147583 0.75374,0.406465 1.07419,0.382781 -0.0316,-0.25177 -0.12306,-0.546949 -0.18864,-0.775829 0.29124,-0.0081 0.67166,0.03948 0.98341,-0.18311 0.19969,-0.1397 0.46803,-0.455398 0.34885,-0.766367 -0.0394,-0.10266 -0.1476,-0.164168 -0.29123,-0.270713 l 7.8e-4,-7.94e-4 z m -3.53508,0.279402 c -0.48776,-0.03948 -0.9037,-0.109676 -1.37883,-0.213102 -0.22731,-0.0473 -0.46249,-0.08608 -0.68665,-0.07894 -0.57221,0.02371 -1.06154,0.393048 -1.49642,0.445929 -0.3378,0.03948 -0.6251,-0.121541 -0.74742,-0.370157 0.50196,0.07101 1.3654,-0.0035 1.42302,-0.494078 0.0237,-0.225726 -0.17521,-0.600625 -0.93528,-0.768728 0.39938,-0.209154 1.38515,0.272289 2.0505,0.626667 0.66219,0.35279 1.09153,0.557997 1.77108,0.84924 z"
   inkscape:connector-curvature="0"
   style="fill:#bc8700;fill-opacity:1;stroke-width:7.89187;stroke-dasharray:none"
   inkscape:label="eye" />
 <path
   id="crown"
   style="fill:#f8c300;fill-opacity:1;fill-rule:evenodd;stroke:#bc8700;stroke-width:0.75;stroke-linecap:butt;stroke-linejoin:round;stroke-dasharray:none;stroke-opacity:1;paint-order:normal"
   d="m 170.85659,-0.67925935 a 6.3214284,6.3214284 0 0 0 -5.20508,8.26122965 2.6785714,2.6785714 0 0 1 4.99268,1.264648 v 6.4340827 a 8.142857,8.142857 0 0 1 -13.68116,5.210449 8.4642855,8.4642855 0 0 1 -12.80029,3.743164 c 0.78206,7.805563 12.48278,6.212079 13.35449,-1.377441 3.67523,6.452104 11.75545,4.605182 14.12207,-3.296387 h 0.0239 c 2.36662,7.901569 10.44684,9.748491 14.12207,3.296387 0.87171,7.58952 12.57244,9.183004 13.35449,1.377441 A 8.4642855,8.4642855 0 0 1 186.3395,20.49115 8.142857,8.142857 0 0 1 172.65835,15.280701 V 8.8466183 a 2.6785714,2.6785714 0 0 1 4.99316,-1.264648 6.3214284,6.3214284 0 0 0 -6.79492,-8.26122965 z M 171.631,25.744568 c -0.77614,0.615128 -1.46267,1.87621 -1.39502,2.880859 -1.2483,0.02051 -2.5122,0.6333 -2.5122,0.6333 2.35275,3.271384 5.67054,3.205641 7.85498,-0.0054 0,0 -0.73346,-0.625187 -2.46729,-0.685547 -0.0635,-1.13667 -0.86942,-2.238876 -1.48047,-2.823242 z m -13.28955,1.088867 c -0.66563,0.733285 -1.13803,2.089108 -0.90771,3.069336 -1.22831,0.223479 -2.37549,1.034179 -2.37549,1.034179 2.85407,2.844791 6.11706,2.239473 7.74951,-1.284668 0,0 -0.82587,-0.497629 -2.54639,-0.274903 -0.24775,-1.111155 -1.22188,-2.066859 -1.91992,-2.543944 z m 26.5791,0.0011 c -0.86593,0.480559 -1.7484,1.612978 -1.84521,2.615233 -1.23499,-0.182991 -2.58203,0.215822 -2.58203,0.215822 1.78875,3.610807 5.07339,4.086002 7.75146,1.273436 v -4.29e-4 c -10e-4,-0.0015 -0.62409,-0.736142 -2.32324,-1.077638 0.12236,-1.131847 -0.49322,-2.350312 -1.00098,-3.026366 z m -13.26904,7.016573 c -7.01409,0 -14.02813,1.010629 -20.82129,3.032714 v 1.770997 c 13.53979,-4.030327 27.96021,-4.030327 41.5,0 l 0.14258,-1.770997 c -6.79316,-2.022085 -13.8072,-3.032714 -20.82129,-3.032714 z"
   inkscape:label="crown" /><path
   d="m 171.65132,6.8321503 c 0.92426,-1.591345 2.76128,-2.414985 4.56428,-2.046428 -0.31328,-2.280771 -2.2621,-3.98019605 -4.56428,-3.98019605 -2.30219,0 -4.25101,1.69942505 -4.56429,3.98019605 1.803,-0.368557 3.64002,0.455083 4.56429,2.046428 z"
   fill="#ffffff"
   id="hole"
   style="fill:#000000;fill-opacity:1;fill-rule:evenodd;stroke:#bc8700;stroke-width:0.75;stroke-linecap:butt;stroke-linejoin:round;stroke-dasharray:none;stroke-opacity:1;paint-order:normal"
   sodipodi:nodetypes="ccscc"
   inkscape:label="hole" /></g><g
   inkscape:groupmode="layer"
   id="layer2"
   inkscape:label="gun"
   transform="translate(-1.7991811,19.756278)"><g
     id="main"
     style="fill:#00166b;fill-opacity:1"
     transform="translate(1.7879532,-44.759046)"
     inkscape:label="main"><path
       style="fill-rule:nonzero;fill:#c6c6c8;fill-opacity:1;color:#000000;stroke-linecap:square;stroke-linejoin:round;-inkscape-stroke:none;paint-order:stroke fill markers"
       d="m 385.3125,116.9707 c -0.52387,0.13948 -0.96979,0.54527 -1.27734,1.07813 -4.02484,-0.0821 -6.78697,-0.093 -14.03516,0.39648 -0.0313,0.002 -0.0626,0.005 -0.0937,0.01 -0.3318,0.0476 -0.70186,0.25861 -0.90625,0.50195 -0.20439,0.24335 -0.27801,0.47119 -0.32227,0.64649 -0.0536,0.2123 -0.0393,0.32088 -0.043,0.45898 -0.0837,-0.0192 -0.17971,-0.0767 -0.25977,-0.0898 -0.61789,-0.10171 -1.17181,-0.064 -1.55078,-0.0527 h -0.01 c -0.14437,3.3e-4 -0.38897,0.004 -0.95312,0.0117 -0.58496,0.008 -1.40433,0.0211 -2.38477,0.0352 -1.96087,0.0282 -4.5625,0.0651 -7.19726,0.10351 -5.26953,0.0768 -10.67412,0.15576 -11.36914,0.16602 -0.84886,-0.002 -1.51273,0.004 -2.10157,0.0937 -0.29742,0.0455 -0.58422,0.10205 -0.91992,0.28515 -0.33533,0.18291 -0.7594,0.63308 -0.83984,1.16016 l -16.91406,0.0234 c -0.62557,-0.01 -1.21928,0.25751 -1.61719,0.58398 -0.39791,0.32647 -0.65808,0.69042 -0.88867,1.03711 -0.46119,0.69338 -0.82462,1.35039 -1.21875,1.73633 -0.24608,0.24123 -0.69002,0.65847 -1.12891,1.02148 -0.43889,0.36302 -0.97557,0.67256 -0.93945,0.66016 -0.0257,0.008 -0.0511,0.0174 -0.0762,0.0273 -4.26324,1.7844 -8.77309,1.37325 -14.77343,1.12305 l -2.02539,-3.90234 -0.004,-0.008 c -0.6571,-1.3817 -1.1931,-2.67998 -2.58789,-6.07813 -0.0632,-0.15281 -0.15619,-0.29156 -0.27344,-0.4082 -0.33697,-0.33668 -0.79324,-0.52735 -1.27148,-0.52735 h -3.02539 l 0.1289,0.006 c 0,0 -0.38738,-0.0315 -0.73242,0.11719 -0.34503,0.14867 -0.72208,0.53843 -0.86133,0.95508 l -0.13083,8.39426 h 1.28946 l 0.81794,-6.41575 0.18554,-0.55664 h 1.82227 c 0.78087,1.90021 1.23106,2.92964 1.66601,3.91016 -0.0963,-0.0168 -0.13892,-0.14453 -0.23828,-0.14453 h -2.20508 c -0.94005,0 -1.72656,0.78843 -1.72656,1.72851 v 2.33594 c 0,0.93917 0.78648,1.72852 1.72656,1.72852 h 3.42774 c 0.58856,0 1.06507,-0.35336 1.37109,-0.80664 l 0.72852,1.40625 c 10e-4,0.003 0.003,0.005 0.004,0.008 0.23644,0.44862 0.72147,0.73828 1.22657,0.73828 h -0.0488 c 6.24641,0.23922 11.29874,0.84334 16.41797,-1.2793 0.71869,-0.25239 1.18308,-0.65903 1.69922,-1.08593 0.52152,-0.43137 0.99774,-0.88039 1.28515,-1.16211 0.7762,-0.76006 1.20379,-1.61209 1.55274,-2.13672 0.17447,-0.26232 0.3255,-0.4352 0.39258,-0.49024 0.0671,-0.055 -0.007,-0.0156 -0.008,-0.0156 0.007,6e-5 0.0143,6e-5 0.0215,0 l 17.50586,-0.0234 c 0.21073,-2.8e-4 0.41812,0.0115 0.74804,-0.0918 0.32993,-0.10325 0.77523,-0.47401 0.9336,-0.8125 0.14225,-0.30403 0.0843,-0.40299 0.10156,-0.57617 0.32386,-0.0339 0.79387,-0.0607 1.51758,-0.0586 0.008,7e-5 0.0156,7e-5 0.0234,0 0.69412,-0.0102 6.09979,-0.0892 11.36914,-0.16602 2.63467,-0.0384 5.23478,-0.0773 7.19531,-0.10547 0.98026,-0.0141 1.80046,-0.025 2.38476,-0.0332 0.58431,-0.008 1.01904,-0.0117 0.95313,-0.0117 0.0124,-4.8e-4 0.0247,-0.001 0.0371,-0.002 0.40875,-0.0119 0.8496,-0.0168 1.08203,0.0215 0.0521,0.009 0.03,0.003 0.0527,0.01 0.0464,0.0908 0.0497,0.16034 0.14454,0.26758 0.20487,0.23173 0.63161,0.46289 1.02343,0.46289 h 0.53125 c 0.7503,0 1.38477,-0.63572 1.38477,-1.38477 v -0.88281 c 6.2044,-0.39839 9.19506,-0.44281 12.9414,-0.36523 -0.0209,0.094 -0.10742,0.15855 -0.10742,0.25781 v 1.3164 c 0,0.75143 0.62815,1.38477 1.38477,1.38477 h 47.10937 c 0.16529,0 0.7117,0.19542 1.37696,0.69531 0.66526,0.49989 1.43636,1.23424 2.22851,2.00977 0.79216,0.77552 1.60627,1.59182 2.4375,2.27929 0.8289,0.68554 1.65708,1.28402 2.70899,1.48243 4.96903,1.13541 10.01922,2.1518 15.14257,2.71875 0.0876,0.01 0.17596,0.0106 0.26368,0.002 1.82863,-0.18541 3.54675,-0.65173 5.17968,-0.98828 h 0.002 c 0.007,-8.3e-4 0.47099,-0.0254 1.08984,0.002 0.61996,0.0274 1.45109,0.087 2.45703,0.17774 2.01189,0.18152 4.72667,0.48955 7.94141,0.91796 6.1897,0.82487 14.34751,2.14735 22.88867,3.83594 0.002,0.10436 0.009,0.16106 0.008,0.28516 -0.007,0.67316 -0.0583,1.61517 -0.15234,2.71484 -0.18801,2.19936 -0.54022,5.04186 -1.00195,7.83985 -0.46174,2.79798 -1.03862,5.56146 -1.65039,7.57031 -0.30589,1.00442 -0.62877,1.82328 -0.89844,2.31054 -0.0741,0.13381 -0.11149,0.16696 -0.16797,0.24415 -8.1525,-2.13722 -16.4748,-5.67413 -24.54883,-8.60938 l -0.0137,-0.006 -17.51953,-6.58984 -0.006,-0.002 c -5.27309,-2.63335 -8.23335,-3.74715 -10.5,-3.53125 -1.14386,0.10896 -2.14517,0.75818 -2.65625,1.60938 -0.31889,0.5311 -0.36864,1.13031 -0.48633,1.71094 -0.0121,-0.003 -0.12109,-0.0332 -0.12109,-0.0332 0,0 -0.19922,0.57418 -0.19922,0.57422 -1e-5,5e-5 -0.004,0.0683 -0.004,0.0684 -1e-5,3.4e-4 -8e-5,0.0492 0,0.0566 3.5e-4,0.0297 10e-4,0.0318 0.002,0.0488 2e-5,5e-4 -1e-5,0.003 0,0.004 10e-6,6e-5 -1e-5,0.002 0,0.002 -3.5e-4,-0.007 5.6e-4,0.0232 0.002,0.0586 2e-4,0.005 -2.1e-4,0.0141 0,0.0195 0.003,0.0818 0.007,0.18805 0.0156,0.45118 v -0.0508 c 3.3e-4,0.008 0.002,0.0169 0.002,0.0234 2.3e-4,0.005 0.002,0.01 0.002,0.0176 1.9e-4,0.004 -10e-4,0.008 0,0.0234 4.4e-4,0.007 0.005,0.0421 0.006,0.0527 1.4e-4,0.002 0,0.008 0,0.008 -0.18805,3.4901 1.16755,6.35608 2.53711,9.0957 0.01,0.0185 0.0203,0.0367 0.0312,0.0547 1.50567,2.66957 1.73089,4.72823 1.39258,6.18359 -0.33832,1.45536 -1.23337,2.39019 -2.3125,2.87305 -1.07914,0.48285 -2.32115,0.46519 -3.29493,-0.0606 -0.97377,-0.52574 -1.77555,-1.52658 -1.96679,-3.44141 -0.004,-0.0433 -0.0108,-0.0863 -0.0195,-0.1289 -0.96385,-4.66014 -2.55875,-8.90661 -5.92774,-12.51563 -0.0401,-0.0434 -0.0831,-0.0838 -0.1289,-0.12109 -0.47995,-0.38621 -1.15965,-0.56831 -1.78321,-0.49024 0.004,-1.21292 0.002,-2.42397 0.002,-3.63086 v -2.23437 c 3.3e-4,-0.39896 -0.18979,-0.77412 -0.51172,-1.00977 0,0 -0.2292,-0.16995 -0.42969,-0.30078 -0.59075,-0.38506 -1.3829,-0.20559 -1.75,0.39649 -0.096,0.15773 -0.37763,0.3786 -0.73047,0.56054 -0.17642,0.091 -0.35532,0.16968 -0.55469,0.27149 -0.0997,0.0509 -0.20418,0.10222 -0.35351,0.21289 -10e-4,0.001 -0.004,0.007 -0.006,0.008 -0.27898,-0.70965 -0.71828,-1.35592 -1.26953,-1.8418 -0.22819,-0.20123 -0.52194,-0.31234 -0.82618,-0.3125 h -5.13281 c -0.24859,0 -0.72489,0.16238 -0.96484,0.43555 l 0.0547,-0.0586 -0.60157,0.60351 0.0606,-0.0586 c -0.30992,0.27118 -0.4375,0.74021 -0.4375,0.9668 l -0.002,2.25781 c -0.52179,-0.30395 -1.05899,-0.54654 -1.71094,-0.60352 -0.83796,-0.0732 -1.85934,-0.0597 -3.24609,-0.0254 -0.0941,0.002 -0.31423,-0.003 -0.55079,0.006 -0.11827,0.004 -0.23801,0.009 -0.4121,0.041 -0.087,0.0159 -0.18824,0.0341 -0.34571,0.10156 -0.15747,0.0675 -0.43578,0.17878 -0.65625,0.60156 -0.0781,0.14918 -0.12528,0.31261 -0.13867,0.48047 -1.19884,15.09167 -7.4605,27.81384 -24.67969,38.7461 -0.21609,-0.14288 -0.57908,-0.45472 -0.99414,-0.91993 -0.87248,-0.97789 -1.94333,-2.50344 -2.9414,-4.09179 -0.99808,-1.58836 -1.93689,-3.24876 -2.60547,-4.53125 -0.32345,-0.62045 -0.57528,-1.14255 -0.74414,-1.52149 0.13794,-0.12814 0.26362,-0.24651 0.45898,-0.42187 0.57873,-0.51946 1.38348,-1.22874 2.33203,-2.09766 1.89711,-1.73783 4.37487,-4.11811 6.86133,-6.98828 4.97291,-5.74034 10.04875,-13.45346 10.45117,-22.0625 0.0322,-0.68336 -0.49094,-1.26564 -1.17383,-1.30664 -8.28552,-0.49058 -10.94959,-0.24395 -12.51757,0.36719 -0.784,0.30556 -1.14377,0.65451 -1.35547,0.76562 -0.2117,0.11111 -0.551,0.24287 -1.75196,0.27735 -7.55737,0.21696 6.49743,-4.06182 -80.57421,-3.08985 l -0.084,-0.48242 -0.95859,-7.93271 h -1.28946 v 9.59287 c 0,0 0.0498,0.33031 0.26758,0.64257 0.21775,0.31227 0.76481,0.67774 1.3125,0.67774 0.005,3e-5 0.0104,3e-5 0.0156,0 88.13799,-1.01661 72.97915,3.333 81.38086,3.0918 1.39452,-0.04 2.23418,-0.24454 2.84375,-0.56446 0.60956,-0.31992 0.71325,-0.49785 1.09961,-0.64844 0.70907,-0.27636 3.37973,-0.55196 10.06054,-0.23242 -0.78605,7.21048 -5.09383,14.04618 -9.61718,19.26758 -2.39634,2.76615 -4.80075,5.08169 -6.65821,6.7832 -0.92873,0.85076 -1.72035,1.54682 -2.31445,2.08008 -0.29705,0.26663 -0.54303,0.49152 -0.74414,0.68555 -0.20111,0.19403 -0.32915,0.2732 -0.54297,0.625 -0.0651,0.10671 -0.11381,0.22259 -0.14453,0.34375 -0.10572,0.41875 -0.0314,0.53145 -0.006,0.6543 0.0255,0.12284 0.0554,0.21654 0.0879,0.3125 0.065,0.19192 0.14612,0.38823 0.24805,0.61914 0.20386,0.46181 0.48855,1.0449 0.83984,1.71875 0.70258,1.3477 1.66537,3.05047 2.70508,4.70507 1.03971,1.65461 2.14532,3.25112 3.19336,4.42579 0.52402,0.58733 1.02072,1.07445 1.5957,1.42968 0.28749,0.17762 0.60064,0.32941 0.99609,0.39453 0.39546,0.0651 0.90479,0.002 1.3086,-0.25195 17.5629,-11.04351 24.51266,-24.47018 25.99414,-39.79101 1.23333,-0.028 2.1986,-0.0369 2.77734,0.0137 0.61863,0.0541 0.78002,0.17836 0.73828,0.14062 -0.0417,-0.0377 0.006,-0.0544 0.0449,0.37305 0.0385,0.42745 0.0282,1.15422 0.0488,2.12109 0.0228,1.06958 0.45122,2.11761 1.26368,2.69532 0.81246,0.57771 1.73679,0.70154 2.74804,0.75586 2.02251,0.10862 4.64478,-0.16416 8.09571,0.0332 0.0234,0.001 0.0469,0.002 0.0703,0.002 h 0.004 c 0.771,0 1.44435,-0.35433 1.8711,-0.72851 0.39991,-0.35065 0.63245,-0.6911 0.8164,-0.92969 2.79539,3.12104 4.18257,6.7254 5.07032,11.01758 l -0.0195,-0.12891 c 0.25725,2.57576 1.55122,4.46591 3.26757,5.39258 1.71636,0.92667 3.75901,0.92333 5.50391,0.14258 1.7449,-0.78075 3.21466,-2.38578 3.72656,-4.58789 0.51191,-2.20212 0.0733,-4.91892 -1.65234,-7.97852 l 0.0293,0.0547 c -1.37994,-2.76038 -2.48439,-5.15443 -2.28516,-7.99024 0.10465,-0.83511 0.26785,-1.45703 0.43555,-1.73632 0.16996,-0.28307 0.21252,-0.3531 0.75,-0.4043 1.07495,-0.1024 4.01415,0.69976 9.26367,3.32812 0.0394,0.0197 0.0798,0.0373 0.12109,0.0527 l 17.53711,6.59765 c 0.005,0.001 0.009,0.003 0.0137,0.004 8.15064,2.96248 16.72519,6.66584 25.31641,8.85547 0.13258,0.0339 0.26982,0.0458 0.40625,0.0352 0.57084,-0.0448 1.0027,-0.3399 1.30859,-0.64063 0.30589,-0.30073 0.53069,-0.63895 0.74024,-1.01758 0.41909,-0.75725 0.76886,-1.69408 1.10351,-2.79297 0.66931,-2.19777 1.25187,-5.02793 1.72461,-7.89257 0.47274,-2.86465 0.83046,-5.75288 1.02539,-8.03321 0.0975,-1.14016 0.15399,-2.1262 0.16211,-2.90234 0.004,-0.38807 -0.003,-0.72024 -0.0293,-1.01953 -0.0266,-0.29929 0.0103,-0.50872 -0.25977,-0.98438 -0.17845,-0.3152 -0.48483,-0.5375 -0.83984,-0.60937 -8.97139,-1.79979 -17.45339,-3.14762 -23.9375,-4.01172 -3.24206,-0.43205 -5.984,-0.74357 -8.04688,-0.92969 -1.03144,-0.0931 -1.89093,-0.15362 -2.57031,-0.18359 -0.67939,-0.03 -1.11865,-0.0472 -1.58008,0.0234 -0.0209,0.003 -0.0417,0.006 -0.0625,0.01 -1.71365,0.35034 -3.33651,0.77109 -4.88281,0.93945 -4.93918,-0.55566 -9.86048,-1.53871 -14.74805,-2.65625 -0.0162,-0.004 -0.0325,-0.007 -0.0488,-0.01 -0.2577,-0.048 -0.88618,-0.37958 -1.58203,-0.95508 -0.69585,-0.5755 -1.47828,-1.35256 -2.28125,-2.13867 -0.80296,-0.78611 -1.62384,-1.58191 -2.47656,-2.22266 -0.85272,-0.64075 -1.74855,-1.19531 -2.87891,-1.19531 h -45.17968 c 0.14409,-0.24812 0.32812,-0.48012 0.32812,-0.78125 v -1.58984 c 0,-0.55217 -0.35262,-1.24155 -0.87109,-1.52344 -0.51847,-0.2819 -1.00118,-0.2464 -1.39844,-0.14063 z m -1.55469,1.79688 c -0.008,0.0774 -0.0742,0.11278 -0.0742,0.19531 0,0.13404 -0.0435,0.13776 0.041,-0.1543 0.005,-0.0176 0.0261,-0.0232 0.0332,-0.041 z m -13.84961,2.23437 c 0.0338,0.0281 0.10603,0.0305 0.13086,0.0586 0.15814,0.17887 0.19034,0.30396 0.21289,0.38281 -0.057,-0.1952 -0.23104,-0.27975 -0.34375,-0.44141 z m -26.3789,1.08594 -0.008,0.0625 c -4.3e-4,0.003 -0.003,0.003 -0.004,0.006 0.001,-0.0208 0.01,-0.0465 0.0117,-0.0684 z m -46.70899,3.74219 h 0.96485 l 0.41406,0.79297 h -1.37891 z m 117.01758,13.74804 h 3.8125 c 0.35036,0.46587 0.66532,1.07382 0.54688,1.44336 -0.3146,0.88207 -0.78273,1.23154 -1.31641,1.50586 -0.26919,0.13837 -0.54839,0.23874 -0.83008,0.33985 -0.28169,0.10111 -0.55454,0.0139 -1.08789,0.6289 v 0.002 c -0.22009,0.25383 -0.38715,0.72237 -0.32812,1.11718 0.059,0.39482 0.25045,0.64722 0.41015,0.81055 0.0213,0.0218 0.0396,0.0153 0.0606,0.0352 -0.41099,-0.0511 -0.93136,-0.0816 -1.13477,-0.15625 -0.11059,-0.0406 -0.1064,-0.0462 -0.13476,-0.0645 v -3.80664 z m 8.45313,1.49415 v 0.25585 c 0,1.20879 0.002,2.41509 -0.002,3.61719 -0.12621,0.22186 -0.26129,0.43984 -0.30078,0.47071 -0.0536,0.0419 -1.2e-4,0.0172 -0.043,0.0176 h -0.002 c -0.86587,0.009 -1.78558,0.0269 -2.73828,0.0664 1.27857,-0.61227 2.526,-1.6938 2.97265,-3.80859 0.004,-0.0201 0.007,-0.0402 0.01,-0.0605 l 0.0879,-0.55078 c 0.006,-0.003 0.01,-0.005 0.0156,-0.008 z m 16.29687,1.67382 0.002,0.006 c -0.001,-3.8e-4 -0.0102,-0.003 -0.0117,-0.004 9e-5,-2e-5 0.01,-0.002 0.01,-0.002 z m 0.14258,0.0293 c 3e-4,0.004 0.002,0.0156 0.002,0.0156 h -0.002 c -2.3e-4,-0.005 2.7e-4,-0.0102 0,-0.0156 z m -2.45899,0.80469 h 0.004 c 0.009,0.0468 0.0176,0.0957 0.0176,0.0957 l -0.0215,-0.0957 z"
       id="path4"
       inkscape:label="outline"
       sodipodi:nodetypes="ccscsscccssssccsccsscscccccccsccscccccccssssssccccccscsscccsscscsscccccssssccssssssscccccsssccsssscccccssccssssscscccccsscccssssccccsccccssccscsccccccscccscccssscsssccssscccccsscssscsssscccsssssssccsscssssssscccssscccssscccscsssssscccssscccscsssscsssccsscsscscccccccccccccccssccsscsccccscssscccccccccccccccccccc" /><path
       style="fill-rule:nonzero;fill:#00166b;fill-opacity:1;color:#000000;stroke-linecap:square;stroke-linejoin:round;-inkscape-stroke:none;paint-order:stroke fill markers"
       d="m 295.5697,127.3939 c 0,0.26438 0.21408,0.47846 0.47787,0.47846 h 3.42694 c 0.3597,0 0.59015,-0.38193 0.42346,-0.70012 l -1.22245,-2.33612 c -0.0824,-0.15791 -0.24566,-0.25616 -0.42346,-0.25616 h -2.20449 c -0.26379,0 -0.47787,0.21407 -0.47787,0.47786 z m 117.01699,14.03938 v 3.97674 c 0,2.04768 5.7393,1.3093 9.36999,1.27334 0.52227,-0.005 1.08572,-0.28404 1.58158,-1.39738 0.006,-1.31848 0.003,-2.63892 0.003,-3.95807 v -2.23433 c 0,0 -0.25197,-0.18396 -0.37426,-0.26376 -0.59222,0.97262 -1.99518,1.25517 -2.03581,1.49073 l -0.17721,1.11306 c -0.99178,4.69583 -5.54977,3.46344 -5.04595,2.8824 0.33527,-0.38662 2.62238,-0.45146 3.47842,-2.89878 0.35665,-1.08365 -0.19029,-2.35136 -1.02667,-3.08855 h -5.13366 c -0.0105,0 -0.0187,0.003 -0.0252,0.0104 l -0.60246,0.60246 c -0.008,0.007 -0.0104,0.0159 -0.0104,0.0251 z M 294.0261,118.539 c 0.0819,-0.24506 0.27782,-0.22459 0.27782,-0.22459 h 3.02688 c 0.14507,0 0.28485,0.058 0.38778,0.16084 1.3969,3.40328 1.94387,4.72781 2.61925,6.14749 l 2.3466,4.52478 c 0.0234,0.0444 0.069,0.0719 0.1194,0.0719 6.31888,0.242 11.15869,0.80261 15.9438,-1.20021 0.69662,-0.23922 2.0033,-1.44763 2.53672,-1.97054 1.17033,-1.14599 1.58054,-3.01869 2.83033,-2.99936 l 17.50583,-0.0234 c 0.67769,-9e-4 0.57271,-0.13515 0.66471,-1.06208 0.0633,-0.41883 0.95281,-0.48206 2.64316,-0.47709 1.38915,-0.0205 21.62261,-0.3176 21.92208,-0.3176 0.78785,-0.0229 2.00013,-0.0862 2.20453,0.62572 0.0203,0.0708 0.0602,0.134 0.13444,0.134 h 0.53168 c 0.0742,0 0.134,-0.0602 0.134,-0.134 v -1.43284 c 0,-0.34276 0.0152,-0.63911 0.2287,-0.66971 7.63777,-0.51577 10.31624,-0.51277 14.71549,-0.41467 0.15509,-0.0699 0.13459,-0.15026 0.13459,-0.31401 0,-0.78316 1.39849,-1.19975 1.39849,-0.32809 v 1.58916 c 0,0.24684 -0.19944,0.44628 -0.44628,0.44628 h -0.56267 c -0.0737,0 -0.13399,0.0602 -0.13399,0.13459 v 1.31544 c 0,0.0742 0.0603,0.13459 0.13399,0.13459 h 47.10955 c 2.59128,0 6.36229,6.00186 8.98999,6.49121 4.96034,1.13418 9.97884,2.14185 15.04305,2.70225 1.71394,-0.17378 3.41555,-0.63191 5.11683,-0.97972 1.86518,-0.28538 17.81937,1.50558 35.70024,5.09273 0.74706,1.31563 -1.94162,23.19663 -4.78714,23.42003 -8.45618,-2.15521 -16.99806,-5.83834 -25.19751,-8.81856 l -17.53889,-6.59709 c -10.61567,-5.31513 -11.81042,-3.83548 -12.2559,-0.19841 -5.9e-4,0.008 -0.0452,-1.22114 -0.003,0.0252 -0.23078,3.21484 1.02737,5.87275 2.41722,8.65296 6.46264,11.45835 -7.61633,15.2742 -8.51334,6.29301 -0.93952,-4.54251 -2.44472,-8.5188 -5.61636,-11.91641 -1.54126,-1.24025 -1.61558,1.56042 -3.36703,1.56042 h -0.003 c -7.09914,-0.40601 -10.858,1.06787 -10.9289,-2.26276 -0.0799,-3.75315 0.4299,-4.01098 -5.08006,-3.87472 -0.29681,0.007 -0.8362,-0.019 -0.8872,0.0788 -1.22957,15.47849 -7.83388,28.76647 -25.5507,39.90677 -2.03876,1.28197 -9.24986,-12.01659 -9.09117,-12.64514 0.74706,-1.22917 19.52391,-15.01299 20.28555,-31.30674 -16.4768,-0.97558 -10.32431,1.26231 -15.51528,1.41133 -7.99441,0.22951 6.81638,-4.1079 -81.36107,-3.09084 -0.29945,0 -0.34917,-0.28601 -0.34917,-0.28601"
       id="path5"
       inkscape:label="body" /></g><g
     id="g8"
     style="fill:#00166b;fill-opacity:1"
     transform="matrix(0.66389956,0,0,0.66389956,134.76848,76.553457)"
     inkscape:label="main"><path
       style="color:#000000;fill:#c6c6c8;fill-opacity:1;fill-rule:nonzero;stroke-linecap:square;stroke-linejoin:round;-inkscape-stroke:none;paint-order:stroke fill markers"
       d="m 385.3125,116.9707 c -0.52387,0.13948 -0.96979,0.54527 -1.27734,1.07813 -4.02484,-0.0821 -6.78697,-0.093 -14.03516,0.39648 -0.0313,0.002 -0.0626,0.005 -0.0937,0.01 -0.3318,0.0476 -0.70186,0.25861 -0.90625,0.50195 -0.20439,0.24335 -0.27801,0.47119 -0.32227,0.64649 -0.0536,0.2123 -0.0393,0.32088 -0.043,0.45898 -0.0837,-0.0192 -0.17971,-0.0767 -0.25977,-0.0898 -0.61789,-0.10171 -1.17181,-0.064 -1.55078,-0.0527 h -0.01 c -0.14437,3.3e-4 -0.38897,0.004 -0.95312,0.0117 -0.58496,0.008 -1.40433,0.0211 -2.38477,0.0352 -1.96087,0.0282 -4.5625,0.0651 -7.19726,0.10351 -5.26953,0.0768 -10.67412,0.15576 -11.36914,0.16602 -0.84886,-0.002 -1.51273,0.004 -2.10157,0.0937 -0.29742,0.0455 -0.58422,0.10205 -0.91992,0.28515 -0.33533,0.18291 -0.7594,0.63308 -0.83984,1.16016 l -16.91406,0.0234 c -0.62557,-0.01 -1.21928,0.25751 -1.61719,0.58398 -0.39791,0.32647 -0.65808,0.69042 -0.88867,1.03711 -0.46119,0.69338 -0.82462,1.35039 -1.21875,1.73633 -0.24608,0.24123 -0.69002,0.65847 -1.12891,1.02148 -0.43889,0.36302 -0.97557,0.67256 -0.93945,0.66016 -0.0257,0.008 -0.0511,0.0174 -0.0762,0.0273 -4.26324,1.7844 -8.77309,1.37325 -14.77343,1.12305 l -2.02539,-3.90234 -0.004,-0.008 c -0.6571,-1.3817 -1.1931,-2.67998 -2.58789,-6.07813 -0.0632,-0.15281 -0.15619,-0.29156 -0.27344,-0.4082 -0.33697,-0.33668 -0.79324,-0.52735 -1.27148,-0.52735 h -3.02539 l 0.1289,0.006 c 0,0 -0.38738,-0.0315 -0.73242,0.11719 -0.34503,0.14867 -0.72208,0.53843 -0.86133,0.95508 l -0.13083,8.39426 h 1.28946 l 0.81794,-6.41575 0.18554,-0.55664 h 1.82227 c 0.78087,1.90021 1.23106,2.92964 1.66601,3.91016 -0.0963,-0.0168 -0.13892,-0.14453 -0.23828,-0.14453 h -2.20508 c -0.94005,0 -1.72656,0.78843 -1.72656,1.72851 v 2.33594 c 0,0.93917 0.78648,1.72852 1.72656,1.72852 h 3.42774 c 0.58856,0 1.06507,-0.35336 1.37109,-0.80664 l 0.72852,1.40625 c 10e-4,0.003 0.003,0.005 0.004,0.008 0.23644,0.44862 0.72147,0.73828 1.22657,0.73828 h -0.0488 c 6.24641,0.23922 11.29874,0.84334 16.41797,-1.2793 0.71869,-0.25239 1.18308,-0.65903 1.69922,-1.08593 0.52152,-0.43137 0.99774,-0.88039 1.28515,-1.16211 0.7762,-0.76006 1.20379,-1.61209 1.55274,-2.13672 0.17447,-0.26232 0.3255,-0.4352 0.39258,-0.49024 0.0671,-0.055 -0.007,-0.0156 -0.008,-0.0156 0.007,6e-5 0.0143,6e-5 0.0215,0 l 17.50586,-0.0234 c 0.21073,-2.8e-4 0.41812,0.0115 0.74804,-0.0918 0.32993,-0.10325 0.77523,-0.47401 0.9336,-0.8125 0.14225,-0.30403 0.0843,-0.40299 0.10156,-0.57617 0.32386,-0.0339 0.79387,-0.0607 1.51758,-0.0586 0.008,7e-5 0.0156,7e-5 0.0234,0 0.69412,-0.0102 6.09979,-0.0892 11.36914,-0.16602 2.63467,-0.0384 5.23478,-0.0773 7.19531,-0.10547 0.98026,-0.0141 1.80046,-0.025 2.38476,-0.0332 0.58431,-0.008 1.01904,-0.0117 0.95313,-0.0117 0.0124,-4.8e-4 0.0247,-0.001 0.0371,-0.002 0.40875,-0.0119 0.8496,-0.0168 1.08203,0.0215 0.0521,0.009 0.03,0.003 0.0527,0.01 0.0464,0.0908 0.0497,0.16034 0.14454,0.26758 0.20487,0.23173 0.63161,0.46289 1.02343,0.46289 h 0.53125 c 0.7503,0 1.38477,-0.63572 1.38477,-1.38477 v -0.88281 c 6.2044,-0.39839 9.19506,-0.44281 12.9414,-0.36523 -0.0209,0.094 -0.10742,0.15855 -0.10742,0.25781 v 1.3164 c 0,0.75143 0.62815,1.38477 1.38477,1.38477 h 47.10937 c 0.16529,0 0.7117,0.19542 1.37696,0.69531 0.66526,0.49989 1.43636,1.23424 2.22851,2.00977 0.79216,0.77552 1.60627,1.59182 2.4375,2.27929 0.8289,0.68554 1.65708,1.28402 2.70899,1.48243 4.96903,1.13541 10.01922,2.1518 15.14257,2.71875 0.0876,0.01 0.17596,0.0106 0.26368,0.002 1.82863,-0.18541 3.54675,-0.65173 5.17968,-0.98828 h 0.002 c 0.007,-8.3e-4 0.47099,-0.0254 1.08984,0.002 0.61996,0.0274 1.45109,0.087 2.45703,0.17774 2.01189,0.18152 4.72667,0.48955 7.94141,0.91796 6.1897,0.82487 14.34751,2.14735 22.88867,3.83594 0.002,0.10436 0.009,0.16106 0.008,0.28516 -0.007,0.67316 -0.0583,1.61517 -0.15234,2.71484 -0.18801,2.19936 -0.54022,5.04186 -1.00195,7.83985 -0.46174,2.79798 -1.03862,5.56146 -1.65039,7.57031 -0.30589,1.00442 -0.62877,1.82328 -0.89844,2.31054 -0.0741,0.13381 -0.11149,0.16696 -0.16797,0.24415 -8.1525,-2.13722 -16.4748,-5.67413 -24.54883,-8.60938 l -0.0137,-0.006 -17.51953,-6.58984 -0.006,-0.002 c -5.27309,-2.63335 -8.23335,-3.74715 -10.5,-3.53125 -1.14386,0.10896 -2.14517,0.75818 -2.65625,1.60938 -0.31889,0.5311 -0.36864,1.13031 -0.48633,1.71094 -0.0121,-0.003 -0.12109,-0.0332 -0.12109,-0.0332 0,0 -0.19922,0.57418 -0.19922,0.57422 -1e-5,5e-5 -0.004,0.0683 -0.004,0.0684 -1e-5,3.4e-4 -8e-5,0.0492 0,0.0566 3.5e-4,0.0297 10e-4,0.0318 0.002,0.0488 2e-5,5e-4 -1e-5,0.003 0,0.004 10e-6,6e-5 -1e-5,0.002 0,0.002 -3.5e-4,-0.007 5.6e-4,0.0232 0.002,0.0586 2e-4,0.005 -2.1e-4,0.0141 0,0.0195 0.003,0.0818 0.007,0.18805 0.0156,0.45118 v -0.0508 c 3.3e-4,0.008 0.002,0.0169 0.002,0.0234 2.3e-4,0.005 0.002,0.01 0.002,0.0176 1.9e-4,0.004 -10e-4,0.008 0,0.0234 4.4e-4,0.007 0.005,0.0421 0.006,0.0527 1.4e-4,0.002 0,0.008 0,0.008 -0.18805,3.4901 1.16755,6.35608 2.53711,9.0957 0.01,0.0185 0.0203,0.0367 0.0312,0.0547 1.50567,2.66957 1.73089,4.72823 1.39258,6.18359 -0.33832,1.45536 -1.23337,2.39019 -2.3125,2.87305 -1.07914,0.48285 -2.32115,0.46519 -3.29493,-0.0606 -0.97377,-0.52574 -1.77555,-1.52658 -1.96679,-3.44141 -0.004,-0.0433 -0.0108,-0.0863 -0.0195,-0.1289 -0.96385,-4.66014 -2.55875,-8.90661 -5.92774,-12.51563 -0.0401,-0.0434 -0.0831,-0.0838 -0.1289,-0.12109 -0.47995,-0.38621 -1.15965,-0.56831 -1.78321,-0.49024 0.004,-1.21292 0.002,-2.42397 0.002,-3.63086 v -2.23437 c 3.3e-4,-0.39896 -0.18979,-0.77412 -0.51172,-1.00977 0,0 -0.2292,-0.16995 -0.42969,-0.30078 -0.59075,-0.38506 -1.3829,-0.20559 -1.75,0.39649 -0.096,0.15773 -0.37763,0.3786 -0.73047,0.56054 -0.17642,0.091 -0.35532,0.16968 -0.55469,0.27149 -0.0997,0.0509 -0.20418,0.10222 -0.35351,0.21289 -10e-4,0.001 -0.004,0.007 -0.006,0.008 -0.27898,-0.70965 -0.71828,-1.35592 -1.26953,-1.8418 -0.22819,-0.20123 -0.52194,-0.31234 -0.82618,-0.3125 h -5.13281 c -0.24859,0 -0.72489,0.16238 -0.96484,0.43555 l 0.0547,-0.0586 -0.60157,0.60351 0.0606,-0.0586 c -0.30992,0.27118 -0.4375,0.74021 -0.4375,0.9668 l -0.002,2.25781 c -0.52179,-0.30395 -1.05899,-0.54654 -1.71094,-0.60352 -0.83796,-0.0732 -1.85934,-0.0597 -3.24609,-0.0254 -0.0941,0.002 -0.31423,-0.003 -0.55079,0.006 -0.11827,0.004 -0.23801,0.009 -0.4121,0.041 -0.087,0.0159 -0.18824,0.0341 -0.34571,0.10156 -0.15747,0.0675 -0.43578,0.17878 -0.65625,0.60156 -0.0781,0.14918 -0.12528,0.31261 -0.13867,0.48047 -1.19884,15.09167 -7.4605,27.81384 -24.67969,38.7461 -0.21609,-0.14288 -0.57908,-0.45472 -0.99414,-0.91993 -0.87248,-0.97789 -1.94333,-2.50344 -2.9414,-4.09179 -0.99808,-1.58836 -1.93689,-3.24876 -2.60547,-4.53125 -0.32345,-0.62045 -0.57528,-1.14255 -0.74414,-1.52149 0.13794,-0.12814 0.26362,-0.24651 0.45898,-0.42187 0.57873,-0.51946 1.38348,-1.22874 2.33203,-2.09766 1.89711,-1.73783 4.37487,-4.11811 6.86133,-6.98828 4.97291,-5.74034 10.04875,-13.45346 10.45117,-22.0625 0.0322,-0.68336 -0.49094,-1.26564 -1.17383,-1.30664 -8.28552,-0.49058 -10.94959,-0.24395 -12.51757,0.36719 -0.784,0.30556 -1.14377,0.65451 -1.35547,0.76562 -0.2117,0.11111 -0.551,0.24287 -1.75196,0.27735 -7.55737,0.21696 6.49743,-4.06182 -80.57421,-3.08985 l -0.084,-0.48242 -0.95859,-7.93271 h -1.28946 v 9.59287 c 0,0 0.0498,0.33031 0.26758,0.64257 0.21775,0.31227 0.76481,0.67774 1.3125,0.67774 0.005,3e-5 0.0104,3e-5 0.0156,0 88.13799,-1.01661 72.97915,3.333 81.38086,3.0918 1.39452,-0.04 2.23418,-0.24454 2.84375,-0.56446 0.60956,-0.31992 0.71325,-0.49785 1.09961,-0.64844 0.70907,-0.27636 3.37973,-0.55196 10.06054,-0.23242 -0.78605,7.21048 -5.09383,14.04618 -9.61718,19.26758 -2.39634,2.76615 -4.80075,5.08169 -6.65821,6.7832 -0.92873,0.85076 -1.72035,1.54682 -2.31445,2.08008 -0.29705,0.26663 -0.54303,0.49152 -0.74414,0.68555 -0.20111,0.19403 -0.32915,0.2732 -0.54297,0.625 -0.0651,0.10671 -0.11381,0.22259 -0.14453,0.34375 -0.10572,0.41875 -0.0314,0.53145 -0.006,0.6543 0.0255,0.12284 0.0554,0.21654 0.0879,0.3125 0.065,0.19192 0.14612,0.38823 0.24805,0.61914 0.20386,0.46181 0.48855,1.0449 0.83984,1.71875 0.70258,1.3477 1.66537,3.05047 2.70508,4.70507 1.03971,1.65461 2.14532,3.25112 3.19336,4.42579 0.52402,0.58733 1.02072,1.07445 1.5957,1.42968 0.28749,0.17762 0.60064,0.32941 0.99609,0.39453 0.39546,0.0651 0.90479,0.002 1.3086,-0.25195 17.5629,-11.04351 24.51266,-24.47018 25.99414,-39.79101 1.23333,-0.028 2.1986,-0.0369 2.77734,0.0137 0.61863,0.0541 0.78002,0.17836 0.73828,0.14062 -0.0417,-0.0377 0.006,-0.0544 0.0449,0.37305 0.0385,0.42745 0.0282,1.15422 0.0488,2.12109 0.0228,1.06958 0.45122,2.11761 1.26368,2.69532 0.81246,0.57771 1.73679,0.70154 2.74804,0.75586 2.02251,0.10862 4.64478,-0.16416 8.09571,0.0332 0.0234,0.001 0.0469,0.002 0.0703,0.002 h 0.004 c 0.771,0 1.44435,-0.35433 1.8711,-0.72851 0.39991,-0.35065 0.63245,-0.6911 0.8164,-0.92969 2.79539,3.12104 4.18257,6.7254 5.07032,11.01758 l -0.0195,-0.12891 c 0.25725,2.57576 1.55122,4.46591 3.26757,5.39258 1.71636,0.92667 3.75901,0.92333 5.50391,0.14258 1.7449,-0.78075 3.21466,-2.38578 3.72656,-4.58789 0.51191,-2.20212 0.0733,-4.91892 -1.65234,-7.97852 l 0.0293,0.0547 c -1.37994,-2.76038 -2.48439,-5.15443 -2.28516,-7.99024 0.10465,-0.83511 0.26785,-1.45703 0.43555,-1.73632 0.16996,-0.28307 0.21252,-0.3531 0.75,-0.4043 1.07495,-0.1024 4.01415,0.69976 9.26367,3.32812 0.0394,0.0197 0.0798,0.0373 0.12109,0.0527 l 17.53711,6.59765 c 0.005,0.001 0.009,0.003 0.0137,0.004 8.15064,2.96248 16.72519,6.66584 25.31641,8.85547 0.13258,0.0339 0.26982,0.0458 0.40625,0.0352 0.57084,-0.0448 1.0027,-0.3399 1.30859,-0.64063 0.30589,-0.30073 0.53069,-0.63895 0.74024,-1.01758 0.41909,-0.75725 0.76886,-1.69408 1.10351,-2.79297 0.66931,-2.19777 1.25187,-5.02793 1.72461,-7.89257 0.47274,-2.86465 0.83046,-5.75288 1.02539,-8.03321 0.0975,-1.14016 0.15399,-2.1262 0.16211,-2.90234 0.004,-0.38807 -0.003,-0.72024 -0.0293,-1.01953 -0.0266,-0.29929 0.0103,-0.50872 -0.25977,-0.98438 -0.17845,-0.3152 -0.48483,-0.5375 -0.83984,-0.60937 -8.97139,-1.79979 -17.45339,-3.14762 -23.9375,-4.01172 -3.24206,-0.43205 -5.984,-0.74357 -8.04688,-0.92969 -1.03144,-0.0931 -1.89093,-0.15362 -2.57031,-0.18359 -0.67939,-0.03 -1.11865,-0.0472 -1.58008,0.0234 -0.0209,0.003 -0.0417,0.006 -0.0625,0.01 -1.71365,0.35034 -3.33651,0.77109 -4.88281,0.93945 -4.93918,-0.55566 -9.86048,-1.53871 -14.74805,-2.65625 -0.0162,-0.004 -0.0325,-0.007 -0.0488,-0.01 -0.2577,-0.048 -0.88618,-0.37958 -1.58203,-0.95508 -0.69585,-0.5755 -1.47828,-1.35256 -2.28125,-2.13867 -0.80296,-0.78611 -1.62384,-1.58191 -2.47656,-2.22266 -0.85272,-0.64075 -1.74855,-1.19531 -2.87891,-1.19531 h -45.17968 c 0.14409,-0.24812 0.32812,-0.48012 0.32812,-0.78125 v -1.58984 c 0,-0.55217 -0.35262,-1.24155 -0.87109,-1.52344 -0.51847,-0.2819 -1.00118,-0.2464 -1.39844,-0.14063 z m -1.55469,1.79688 c -0.008,0.0774 -0.0742,0.11278 -0.0742,0.19531 0,0.13404 -0.0435,0.13776 0.041,-0.1543 0.005,-0.0176 0.0261,-0.0232 0.0332,-0.041 z m -13.84961,2.23437 c 0.0338,0.0281 0.10603,0.0305 0.13086,0.0586 0.15814,0.17887 0.19034,0.30396 0.21289,0.38281 -0.057,-0.1952 -0.23104,-0.27975 -0.34375,-0.44141 z m -26.3789,1.08594 -0.008,0.0625 c -4.3e-4,0.003 -0.003,0.003 -0.004,0.006 0.001,-0.0208 0.01,-0.0465 0.0117,-0.0684 z m -46.70899,3.74219 h 0.96485 l 0.41406,0.79297 h -1.37891 z m 117.01758,13.74804 h 3.8125 c 0.35036,0.46587 0.66532,1.07382 0.54688,1.44336 -0.3146,0.88207 -0.78273,1.23154 -1.31641,1.50586 -0.26919,0.13837 -0.54839,0.23874 -0.83008,0.33985 -0.28169,0.10111 -0.55454,0.0139 -1.08789,0.6289 v 0.002 c -0.22009,0.25383 -0.38715,0.72237 -0.32812,1.11718 0.059,0.39482 0.25045,0.64722 0.41015,0.81055 0.0213,0.0218 0.0396,0.0153 0.0606,0.0352 -0.41099,-0.0511 -0.93136,-0.0816 -1.13477,-0.15625 -0.11059,-0.0406 -0.1064,-0.0462 -0.13476,-0.0645 v -3.80664 z m 8.45313,1.49415 v 0.25585 c 0,1.20879 0.002,2.41509 -0.002,3.61719 -0.12621,0.22186 -0.26129,0.43984 -0.30078,0.47071 -0.0536,0.0419 -1.2e-4,0.0172 -0.043,0.0176 h -0.002 c -0.86587,0.009 -1.78558,0.0269 -2.73828,0.0664 1.27857,-0.61227 2.526,-1.6938 2.97265,-3.80859 0.004,-0.0201 0.007,-0.0402 0.01,-0.0605 l 0.0879,-0.55078 c 0.006,-0.003 0.01,-0.005 0.0156,-0.008 z m 16.29687,1.67382 0.002,0.006 c -0.001,-3.8e-4 -0.0102,-0.003 -0.0117,-0.004 9e-5,-2e-5 0.01,-0.002 0.01,-0.002 z m 0.14258,0.0293 c 3e-4,0.004 0.002,0.0156 0.002,0.0156 h -0.002 c -2.3e-4,-0.005 2.7e-4,-0.0102 0,-0.0156 z m -2.45899,0.80469 h 0.004 c 0.009,0.0468 0.0176,0.0957 0.0176,0.0957 l -0.0215,-0.0957 z"
       id="path7"
       inkscape:label="outline"
       sodipodi:nodetypes="ccscsscccssssccsccsscscccccccsccscccccccssssssccccccscsscccsscscsscccccssssccssssssscccccsssccsssscccccssccssssscscccccsscccssssccccsccccssccscsccccccscccscccssscsssccssscccccsscssscsssscccsssssssccsscssssssscccssscccssscccscsssssscccssscccscsssscsssccsscsscscccccccccccccccssccsscsccccscssscccccccccccccccccccc" /><path
       style="color:#000000;fill:#00166b;fill-opacity:1;fill-rule:nonzero;stroke-linecap:square;stroke-linejoin:round;-inkscape-stroke:none;paint-order:stroke fill markers"
       d="m 295.5697,127.3939 c 0,0.26438 0.21408,0.47846 0.47787,0.47846 h 3.42694 c 0.3597,0 0.59015,-0.38193 0.42346,-0.70012 l -1.22245,-2.33612 c -0.0824,-0.15791 -0.24566,-0.25616 -0.42346,-0.25616 h -2.20449 c -0.26379,0 -0.47787,0.21407 -0.47787,0.47786 z m 117.01699,14.03938 v 3.97674 c 0,2.04768 5.7393,1.3093 9.36999,1.27334 0.52227,-0.005 1.08572,-0.28404 1.58158,-1.39738 0.006,-1.31848 0.003,-2.63892 0.003,-3.95807 v -2.23433 c 0,0 -0.25197,-0.18396 -0.37426,-0.26376 -0.59222,0.97262 -1.99518,1.25517 -2.03581,1.49073 l -0.17721,1.11306 c -0.99178,4.69583 -5.54977,3.46344 -5.04595,2.8824 0.33527,-0.38662 2.62238,-0.45146 3.47842,-2.89878 0.35665,-1.08365 -0.19029,-2.35136 -1.02667,-3.08855 h -5.13366 c -0.0105,0 -0.0187,0.003 -0.0252,0.0104 l -0.60246,0.60246 c -0.008,0.007 -0.0104,0.0159 -0.0104,0.0251 z M 294.0261,118.539 c 0.0819,-0.24506 0.27782,-0.22459 0.27782,-0.22459 h 3.02688 c 0.14507,0 0.28485,0.058 0.38778,0.16084 1.3969,3.40328 1.94387,4.72781 2.61925,6.14749 l 2.3466,4.52478 c 0.0234,0.0444 0.069,0.0719 0.1194,0.0719 6.31888,0.242 11.15869,0.80261 15.9438,-1.20021 0.69662,-0.23922 2.0033,-1.44763 2.53672,-1.97054 1.17033,-1.14599 1.58054,-3.01869 2.83033,-2.99936 l 17.50583,-0.0234 c 0.67769,-9e-4 0.57271,-0.13515 0.66471,-1.06208 0.0633,-0.41883 0.95281,-0.48206 2.64316,-0.47709 1.38915,-0.0205 21.62261,-0.3176 21.92208,-0.3176 0.78785,-0.0229 2.00013,-0.0862 2.20453,0.62572 0.0203,0.0708 0.0602,0.134 0.13444,0.134 h 0.53168 c 0.0742,0 0.134,-0.0602 0.134,-0.134 v -1.43284 c 0,-0.34276 0.0152,-0.63911 0.2287,-0.66971 7.63777,-0.51577 10.31624,-0.51277 14.71549,-0.41467 0.15509,-0.0699 0.13459,-0.15026 0.13459,-0.31401 0,-0.78316 1.39849,-1.19975 1.39849,-0.32809 v 1.58916 c 0,0.24684 -0.19944,0.44628 -0.44628,0.44628 h -0.56267 c -0.0737,0 -0.13399,0.0602 -0.13399,0.13459 v 1.31544 c 0,0.0742 0.0603,0.13459 0.13399,0.13459 h 47.10955 c 2.59128,0 6.36229,6.00186 8.98999,6.49121 4.96034,1.13418 9.97884,2.14185 15.04305,2.70225 1.71394,-0.17378 3.41555,-0.63191 5.11683,-0.97972 1.86518,-0.28538 17.81937,1.50558 35.70024,5.09273 0.74706,1.31563 -1.94162,23.19663 -4.78714,23.42003 -8.45618,-2.15521 -16.99806,-5.83834 -25.19751,-8.81856 l -17.53889,-6.59709 c -10.61567,-5.31513 -11.81042,-3.83548 -12.2559,-0.19841 -5.9e-4,0.008 -0.0452,-1.22114 -0.003,0.0252 -0.23078,3.21484 1.02737,5.87275 2.41722,8.65296 6.46264,11.45835 -7.61633,15.2742 -8.51334,6.29301 -0.93952,-4.54251 -2.44472,-8.5188 -5.61636,-11.91641 -1.54126,-1.24025 -1.61558,1.56042 -3.36703,1.56042 h -0.003 c -7.09914,-0.40601 -10.858,1.06787 -10.9289,-2.26276 -0.0799,-3.75315 0.4299,-4.01098 -5.08006,-3.87472 -0.29681,0.007 -0.8362,-0.019 -0.8872,0.0788 -1.22957,15.47849 -7.83388,28.76647 -25.5507,39.90677 -2.03876,1.28197 -9.24986,-12.01659 -9.09117,-12.64514 0.74706,-1.22917 19.52391,-15.01299 20.28555,-31.30674 -16.4768,-0.97558 -10.32431,1.26231 -15.51528,1.41133 -7.99441,0.22951 6.81638,-4.1079 -81.36107,-3.09084 -0.29945,0 -0.34917,-0.28601 -0.34917,-0.28601"
       id="path8"
       inkscape:label="body" /></g><g
     id="g10"
     style="fill:#00166b;fill-opacity:1"
     transform="matrix(0.66389956,0,0,0.66389956,132.85489,-65.221454)"
     inkscape:label="main"><path
       style="color:#000000;fill:#c6c6c8;fill-opacity:1;fill-rule:nonzero;stroke-linecap:square;stroke-linejoin:round;-inkscape-stroke:none;paint-order:stroke fill markers"
       d="m 385.3125,116.9707 c -0.52387,0.13948 -0.96979,0.54527 -1.27734,1.07813 -4.02484,-0.0821 -6.78697,-0.093 -14.03516,0.39648 -0.0313,0.002 -0.0626,0.005 -0.0937,0.01 -0.3318,0.0476 -0.70186,0.25861 -0.90625,0.50195 -0.20439,0.24335 -0.27801,0.47119 -0.32227,0.64649 -0.0536,0.2123 -0.0393,0.32088 -0.043,0.45898 -0.0837,-0.0192 -0.17971,-0.0767 -0.25977,-0.0898 -0.61789,-0.10171 -1.17181,-0.064 -1.55078,-0.0527 h -0.01 c -0.14437,3.3e-4 -0.38897,0.004 -0.95312,0.0117 -0.58496,0.008 -1.40433,0.0211 -2.38477,0.0352 -1.96087,0.0282 -4.5625,0.0651 -7.19726,0.10351 -5.26953,0.0768 -10.67412,0.15576 -11.36914,0.16602 -0.84886,-0.002 -1.51273,0.004 -2.10157,0.0937 -0.29742,0.0455 -0.58422,0.10205 -0.91992,0.28515 -0.33533,0.18291 -0.7594,0.63308 -0.83984,1.16016 l -16.91406,0.0234 c -0.62557,-0.01 -1.21928,0.25751 -1.61719,0.58398 -0.39791,0.32647 -0.65808,0.69042 -0.88867,1.03711 -0.46119,0.69338 -0.82462,1.35039 -1.21875,1.73633 -0.24608,0.24123 -0.69002,0.65847 -1.12891,1.02148 -0.43889,0.36302 -0.97557,0.67256 -0.93945,0.66016 -0.0257,0.008 -0.0511,0.0174 -0.0762,0.0273 -4.26324,1.7844 -8.77309,1.37325 -14.77343,1.12305 l -2.02539,-3.90234 -0.004,-0.008 c -0.6571,-1.3817 -1.1931,-2.67998 -2.58789,-6.07813 -0.0632,-0.15281 -0.15619,-0.29156 -0.27344,-0.4082 -0.33697,-0.33668 -0.79324,-0.52735 -1.27148,-0.52735 h -3.02539 l 0.1289,0.006 c 0,0 -0.38738,-0.0315 -0.73242,0.11719 -0.34503,0.14867 -0.72208,0.53843 -0.86133,0.95508 l -0.13083,8.39426 h 1.28946 l 0.81794,-6.41575 0.18554,-0.55664 h 1.82227 c 0.78087,1.90021 1.23106,2.92964 1.66601,3.91016 -0.0963,-0.0168 -0.13892,-0.14453 -0.23828,-0.14453 h -2.20508 c -0.94005,0 -1.72656,0.78843 -1.72656,1.72851 v 2.33594 c 0,0.93917 0.78648,1.72852 1.72656,1.72852 h 3.42774 c 0.58856,0 1.06507,-0.35336 1.37109,-0.80664 l 0.72852,1.40625 c 10e-4,0.003 0.003,0.005 0.004,0.008 0.23644,0.44862 0.72147,0.73828 1.22657,0.73828 h -0.0488 c 6.24641,0.23922 11.29874,0.84334 16.41797,-1.2793 0.71869,-0.25239 1.18308,-0.65903 1.69922,-1.08593 0.52152,-0.43137 0.99774,-0.88039 1.28515,-1.16211 0.7762,-0.76006 1.20379,-1.61209 1.55274,-2.13672 0.17447,-0.26232 0.3255,-0.4352 0.39258,-0.49024 0.0671,-0.055 -0.007,-0.0156 -0.008,-0.0156 0.007,6e-5 0.0143,6e-5 0.0215,0 l 17.50586,-0.0234 c 0.21073,-2.8e-4 0.41812,0.0115 0.74804,-0.0918 0.32993,-0.10325 0.77523,-0.47401 0.9336,-0.8125 0.14225,-0.30403 0.0843,-0.40299 0.10156,-0.57617 0.32386,-0.0339 0.79387,-0.0607 1.51758,-0.0586 0.008,7e-5 0.0156,7e-5 0.0234,0 0.69412,-0.0102 6.09979,-0.0892 11.36914,-0.16602 2.63467,-0.0384 5.23478,-0.0773 7.19531,-0.10547 0.98026,-0.0141 1.80046,-0.025 2.38476,-0.0332 0.58431,-0.008 1.01904,-0.0117 0.95313,-0.0117 0.0124,-4.8e-4 0.0247,-0.001 0.0371,-0.002 0.40875,-0.0119 0.8496,-0.0168 1.08203,0.0215 0.0521,0.009 0.03,0.003 0.0527,0.01 0.0464,0.0908 0.0497,0.16034 0.14454,0.26758 0.20487,0.23173 0.63161,0.46289 1.02343,0.46289 h 0.53125 c 0.7503,0 1.38477,-0.63572 1.38477,-1.38477 v -0.88281 c 6.2044,-0.39839 9.19506,-0.44281 12.9414,-0.36523 -0.0209,0.094 -0.10742,0.15855 -0.10742,0.25781 v 1.3164 c 0,0.75143 0.62815,1.38477 1.38477,1.38477 h 47.10937 c 0.16529,0 0.7117,0.19542 1.37696,0.69531 0.66526,0.49989 1.43636,1.23424 2.22851,2.00977 0.79216,0.77552 1.60627,1.59182 2.4375,2.27929 0.8289,0.68554 1.65708,1.28402 2.70899,1.48243 4.96903,1.13541 10.01922,2.1518 15.14257,2.71875 0.0876,0.01 0.17596,0.0106 0.26368,0.002 1.82863,-0.18541 3.54675,-0.65173 5.17968,-0.98828 h 0.002 c 0.007,-8.3e-4 0.47099,-0.0254 1.08984,0.002 0.61996,0.0274 1.45109,0.087 2.45703,0.17774 2.01189,0.18152 4.72667,0.48955 7.94141,0.91796 6.1897,0.82487 14.34751,2.14735 22.88867,3.83594 0.002,0.10436 0.009,0.16106 0.008,0.28516 -0.007,0.67316 -0.0583,1.61517 -0.15234,2.71484 -0.18801,2.19936 -0.54022,5.04186 -1.00195,7.83985 -0.46174,2.79798 -1.03862,5.56146 -1.65039,7.57031 -0.30589,1.00442 -0.62877,1.82328 -0.89844,2.31054 -0.0741,0.13381 -0.11149,0.16696 -0.16797,0.24415 -8.1525,-2.13722 -16.4748,-5.67413 -24.54883,-8.60938 l -0.0137,-0.006 -17.51953,-6.58984 -0.006,-0.002 c -5.27309,-2.63335 -8.23335,-3.74715 -10.5,-3.53125 -1.14386,0.10896 -2.14517,0.75818 -2.65625,1.60938 -0.31889,0.5311 -0.36864,1.13031 -0.48633,1.71094 -0.0121,-0.003 -0.12109,-0.0332 -0.12109,-0.0332 0,0 -0.19922,0.57418 -0.19922,0.57422 -1e-5,5e-5 -0.004,0.0683 -0.004,0.0684 -1e-5,3.4e-4 -8e-5,0.0492 0,0.0566 3.5e-4,0.0297 10e-4,0.0318 0.002,0.0488 2e-5,5e-4 -1e-5,0.003 0,0.004 10e-6,6e-5 -1e-5,0.002 0,0.002 -3.5e-4,-0.007 5.6e-4,0.0232 0.002,0.0586 2e-4,0.005 -2.1e-4,0.0141 0,0.0195 0.003,0.0818 0.007,0.18805 0.0156,0.45118 v -0.0508 c 3.3e-4,0.008 0.002,0.0169 0.002,0.0234 2.3e-4,0.005 0.002,0.01 0.002,0.0176 1.9e-4,0.004 -10e-4,0.008 0,0.0234 4.4e-4,0.007 0.005,0.0421 0.006,0.0527 1.4e-4,0.002 0,0.008 0,0.008 -0.18805,3.4901 1.16755,6.35608 2.53711,9.0957 0.01,0.0185 0.0203,0.0367 0.0312,0.0547 1.50567,2.66957 1.73089,4.72823 1.39258,6.18359 -0.33832,1.45536 -1.23337,2.39019 -2.3125,2.87305 -1.07914,0.48285 -2.32115,0.46519 -3.29493,-0.0606 -0.97377,-0.52574 -1.77555,-1.52658 -1.96679,-3.44141 -0.004,-0.0433 -0.0108,-0.0863 -0.0195,-0.1289 -0.96385,-4.66014 -2.55875,-8.90661 -5.92774,-12.51563 -0.0401,-0.0434 -0.0831,-0.0838 -0.1289,-0.12109 -0.47995,-0.38621 -1.15965,-0.56831 -1.78321,-0.49024 0.004,-1.21292 0.002,-2.42397 0.002,-3.63086 v -2.23437 c 3.3e-4,-0.39896 -0.18979,-0.77412 -0.51172,-1.00977 0,0 -0.2292,-0.16995 -0.42969,-0.30078 -0.59075,-0.38506 -1.3829,-0.20559 -1.75,0.39649 -0.096,0.15773 -0.37763,0.3786 -0.73047,0.56054 -0.17642,0.091 -0.35532,0.16968 -0.55469,0.27149 -0.0997,0.0509 -0.20418,0.10222 -0.35351,0.21289 -10e-4,0.001 -0.004,0.007 -0.006,0.008 -0.27898,-0.70965 -0.71828,-1.35592 -1.26953,-1.8418 -0.22819,-0.20123 -0.52194,-0.31234 -0.82618,-0.3125 h -5.13281 c -0.24859,0 -0.72489,0.16238 -0.96484,0.43555 l 0.0547,-0.0586 -0.60157,0.60351 0.0606,-0.0586 c -0.30992,0.27118 -0.4375,0.74021 -0.4375,0.9668 l -0.002,2.25781 c -0.52179,-0.30395 -1.05899,-0.54654 -1.71094,-0.60352 -0.83796,-0.0732 -1.85934,-0.0597 -3.24609,-0.0254 -0.0941,0.002 -0.31423,-0.003 -0.55079,0.006 -0.11827,0.004 -0.23801,0.009 -0.4121,0.041 -0.087,0.0159 -0.18824,0.0341 -0.34571,0.10156 -0.15747,0.0675 -0.43578,0.17878 -0.65625,0.60156 -0.0781,0.14918 -0.12528,0.31261 -0.13867,0.48047 -1.19884,15.09167 -7.4605,27.81384 -24.67969,38.7461 -0.21609,-0.14288 -0.57908,-0.45472 -0.99414,-0.91993 -0.87248,-0.97789 -1.94333,-2.50344 -2.9414,-4.09179 -0.99808,-1.58836 -1.93689,-3.24876 -2.60547,-4.53125 -0.32345,-0.62045 -0.57528,-1.14255 -0.74414,-1.52149 0.13794,-0.12814 0.26362,-0.24651 0.45898,-0.42187 0.57873,-0.51946 1.38348,-1.22874 2.33203,-2.09766 1.89711,-1.73783 4.37487,-4.11811 6.86133,-6.98828 4.97291,-5.74034 10.04875,-13.45346 10.45117,-22.0625 0.0322,-0.68336 -0.49094,-1.26564 -1.17383,-1.30664 -8.28552,-0.49058 -10.94959,-0.24395 -12.51757,0.36719 -0.784,0.30556 -1.14377,0.65451 -1.35547,0.76562 -0.2117,0.11111 -0.551,0.24287 -1.75196,0.27735 -7.55737,0.21696 6.49743,-4.06182 -80.57421,-3.08985 l -0.084,-0.48242 -0.95859,-7.93271 h -1.28946 v 9.59287 c 0,0 0.0498,0.33031 0.26758,0.64257 0.21775,0.31227 0.76481,0.67774 1.3125,0.67774 0.005,3e-5 0.0104,3e-5 0.0156,0 88.13799,-1.01661 72.97915,3.333 81.38086,3.0918 1.39452,-0.04 2.23418,-0.24454 2.84375,-0.56446 0.60956,-0.31992 0.71325,-0.49785 1.09961,-0.64844 0.70907,-0.27636 3.37973,-0.55196 10.06054,-0.23242 -0.78605,7.21048 -5.09383,14.04618 -9.61718,19.26758 -2.39634,2.76615 -4.80075,5.08169 -6.65821,6.7832 -0.92873,0.85076 -1.72035,1.54682 -2.31445,2.08008 -0.29705,0.26663 -0.54303,0.49152 -0.74414,0.68555 -0.20111,0.19403 -0.32915,0.2732 -0.54297,0.625 -0.0651,0.10671 -0.11381,0.22259 -0.14453,0.34375 -0.10572,0.41875 -0.0314,0.53145 -0.006,0.6543 0.0255,0.12284 0.0554,0.21654 0.0879,0.3125 0.065,0.19192 0.14612,0.38823 0.24805,0.61914 0.20386,0.46181 0.48855,1.0449 0.83984,1.71875 0.70258,1.3477 1.66537,3.05047 2.70508,4.70507 1.03971,1.65461 2.14532,3.25112 3.19336,4.42579 0.52402,0.58733 1.02072,1.07445 1.5957,1.42968 0.28749,0.17762 0.60064,0.32941 0.99609,0.39453 0.39546,0.0651 0.90479,0.002 1.3086,-0.25195 17.5629,-11.04351 24.51266,-24.47018 25.99414,-39.79101 1.23333,-0.028 2.1986,-0.0369 2.77734,0.0137 0.61863,0.0541 0.78002,0.17836 0.73828,0.14062 -0.0417,-0.0377 0.006,-0.0544 0.0449,0.37305 0.0385,0.42745 0.0282,1.15422 0.0488,2.12109 0.0228,1.06958 0.45122,2.11761 1.26368,2.69532 0.81246,0.57771 1.73679,0.70154 2.74804,0.75586 2.02251,0.10862 4.64478,-0.16416 8.09571,0.0332 0.0234,0.001 0.0469,0.002 0.0703,0.002 h 0.004 c 0.771,0 1.44435,-0.35433 1.8711,-0.72851 0.39991,-0.35065 0.63245,-0.6911 0.8164,-0.92969 2.79539,3.12104 4.18257,6.7254 5.07032,11.01758 l -0.0195,-0.12891 c 0.25725,2.57576 1.55122,4.46591 3.26757,5.39258 1.71636,0.92667 3.75901,0.92333 5.50391,0.14258 1.7449,-0.78075 3.21466,-2.38578 3.72656,-4.58789 0.51191,-2.20212 0.0733,-4.91892 -1.65234,-7.97852 l 0.0293,0.0547 c -1.37994,-2.76038 -2.48439,-5.15443 -2.28516,-7.99024 0.10465,-0.83511 0.26785,-1.45703 0.43555,-1.73632 0.16996,-0.28307 0.21252,-0.3531 0.75,-0.4043 1.07495,-0.1024 4.01415,0.69976 9.26367,3.32812 0.0394,0.0197 0.0798,0.0373 0.12109,0.0527 l 17.53711,6.59765 c 0.005,0.001 0.009,0.003 0.0137,0.004 8.15064,2.96248 16.72519,6.66584 25.31641,8.85547 0.13258,0.0339 0.26982,0.0458 0.40625,0.0352 0.57084,-0.0448 1.0027,-0.3399 1.30859,-0.64063 0.30589,-0.30073 0.53069,-0.63895 0.74024,-1.01758 0.41909,-0.75725 0.76886,-1.69408 1.10351,-2.79297 0.66931,-2.19777 1.25187,-5.02793 1.72461,-7.89257 0.47274,-2.86465 0.83046,-5.75288 1.02539,-8.03321 0.0975,-1.14016 0.15399,-2.1262 0.16211,-2.90234 0.004,-0.38807 -0.003,-0.72024 -0.0293,-1.01953 -0.0266,-0.29929 0.0103,-0.50872 -0.25977,-0.98438 -0.17845,-0.3152 -0.48483,-0.5375 -0.83984,-0.60937 -8.97139,-1.79979 -17.45339,-3.14762 -23.9375,-4.01172 -3.24206,-0.43205 -5.984,-0.74357 -8.04688,-0.92969 -1.03144,-0.0931 -1.89093,-0.15362 -2.57031,-0.18359 -0.67939,-0.03 -1.11865,-0.0472 -1.58008,0.0234 -0.0209,0.003 -0.0417,0.006 -0.0625,0.01 -1.71365,0.35034 -3.33651,0.77109 -4.88281,0.93945 -4.93918,-0.55566 -9.86048,-1.53871 -14.74805,-2.65625 -0.0162,-0.004 -0.0325,-0.007 -0.0488,-0.01 -0.2577,-0.048 -0.88618,-0.37958 -1.58203,-0.95508 -0.69585,-0.5755 -1.47828,-1.35256 -2.28125,-2.13867 -0.80296,-0.78611 -1.62384,-1.58191 -2.47656,-2.22266 -0.85272,-0.64075 -1.74855,-1.19531 -2.87891,-1.19531 h -45.17968 c 0.14409,-0.24812 0.32812,-0.48012 0.32812,-0.78125 v -1.58984 c 0,-0.55217 -0.35262,-1.24155 -0.87109,-1.52344 -0.51847,-0.2819 -1.00118,-0.2464 -1.39844,-0.14063 z m -1.55469,1.79688 c -0.008,0.0774 -0.0742,0.11278 -0.0742,0.19531 0,0.13404 -0.0435,0.13776 0.041,-0.1543 0.005,-0.0176 0.0261,-0.0232 0.0332,-0.041 z m -13.84961,2.23437 c 0.0338,0.0281 0.10603,0.0305 0.13086,0.0586 0.15814,0.17887 0.19034,0.30396 0.21289,0.38281 -0.057,-0.1952 -0.23104,-0.27975 -0.34375,-0.44141 z m -26.3789,1.08594 -0.008,0.0625 c -4.3e-4,0.003 -0.003,0.003 -0.004,0.006 0.001,-0.0208 0.01,-0.0465 0.0117,-0.0684 z m -46.70899,3.74219 h 0.96485 l 0.41406,0.79297 h -1.37891 z m 117.01758,13.74804 h 3.8125 c 0.35036,0.46587 0.66532,1.07382 0.54688,1.44336 -0.3146,0.88207 -0.78273,1.23154 -1.31641,1.50586 -0.26919,0.13837 -0.54839,0.23874 -0.83008,0.33985 -0.28169,0.10111 -0.55454,0.0139 -1.08789,0.6289 v 0.002 c -0.22009,0.25383 -0.38715,0.72237 -0.32812,1.11718 0.059,0.39482 0.25045,0.64722 0.41015,0.81055 0.0213,0.0218 0.0396,0.0153 0.0606,0.0352 -0.41099,-0.0511 -0.93136,-0.0816 -1.13477,-0.15625 -0.11059,-0.0406 -0.1064,-0.0462 -0.13476,-0.0645 v -3.80664 z m 8.45313,1.49415 v 0.25585 c 0,1.20879 0.002,2.41509 -0.002,3.61719 -0.12621,0.22186 -0.26129,0.43984 -0.30078,0.47071 -0.0536,0.0419 -1.2e-4,0.0172 -0.043,0.0176 h -0.002 c -0.86587,0.009 -1.78558,0.0269 -2.73828,0.0664 1.27857,-0.61227 2.526,-1.6938 2.97265,-3.80859 0.004,-0.0201 0.007,-0.0402 0.01,-0.0605 l 0.0879,-0.55078 c 0.006,-0.003 0.01,-0.005 0.0156,-0.008 z m 16.29687,1.67382 0.002,0.006 c -0.001,-3.8e-4 -0.0102,-0.003 -0.0117,-0.004 9e-5,-2e-5 0.01,-0.002 0.01,-0.002 z m 0.14258,0.0293 c 3e-4,0.004 0.002,0.0156 0.002,0.0156 h -0.002 c -2.3e-4,-0.005 2.7e-4,-0.0102 0,-0.0156 z m -2.45899,0.80469 h 0.004 c 0.009,0.0468 0.0176,0.0957 0.0176,0.0957 l -0.0215,-0.0957 z"
       id="path9"
       inkscape:label="outline"
       sodipodi:nodetypes="ccscsscccssssccsccsscscccccccsccscccccccssssssccccccscsscccsscscsscccccssssccssssssscccccsssccsssscccccssccssssscscccccsscccssssccccsccccssccscsccccccscccscccssscsssccssscccccsscssscsssscccsssssssccsscssssssscccssscccssscccscsssssscccssscccscsssscsssccsscsscscccccccccccccccssccsscsccccscssscccccccccccccccccccc" /><path
       style="color:#000000;fill:#00166b;fill-opacity:1;fill-rule:nonzero;stroke-linecap:square;stroke-linejoin:round;-inkscape-stroke:none;paint-order:stroke fill markers"
       d="m 295.5697,127.3939 c 0,0.26438 0.21408,0.47846 0.47787,0.47846 h 3.42694 c 0.3597,0 0.59015,-0.38193 0.42346,-0.70012 l -1.22245,-2.33612 c -0.0824,-0.15791 -0.24566,-0.25616 -0.42346,-0.25616 h -2.20449 c -0.26379,0 -0.47787,0.21407 -0.47787,0.47786 z m 117.01699,14.03938 v 3.97674 c 0,2.04768 5.7393,1.3093 9.36999,1.27334 0.52227,-0.005 1.08572,-0.28404 1.58158,-1.39738 0.006,-1.31848 0.003,-2.63892 0.003,-3.95807 v -2.23433 c 0,0 -0.25197,-0.18396 -0.37426,-0.26376 -0.59222,0.97262 -1.99518,1.25517 -2.03581,1.49073 l -0.17721,1.11306 c -0.99178,4.69583 -5.54977,3.46344 -5.04595,2.8824 0.33527,-0.38662 2.62238,-0.45146 3.47842,-2.89878 0.35665,-1.08365 -0.19029,-2.35136 -1.02667,-3.08855 h -5.13366 c -0.0105,0 -0.0187,0.003 -0.0252,0.0104 l -0.60246,0.60246 c -0.008,0.007 -0.0104,0.0159 -0.0104,0.0251 z M 294.0261,118.539 c 0.0819,-0.24506 0.27782,-0.22459 0.27782,-0.22459 h 3.02688 c 0.14507,0 0.28485,0.058 0.38778,0.16084 1.3969,3.40328 1.94387,4.72781 2.61925,6.14749 l 2.3466,4.52478 c 0.0234,0.0444 0.069,0.0719 0.1194,0.0719 6.31888,0.242 11.15869,0.80261 15.9438,-1.20021 0.69662,-0.23922 2.0033,-1.44763 2.53672,-1.97054 1.17033,-1.14599 1.58054,-3.01869 2.83033,-2.99936 l 17.50583,-0.0234 c 0.67769,-9e-4 0.57271,-0.13515 0.66471,-1.06208 0.0633,-0.41883 0.95281,-0.48206 2.64316,-0.47709 1.38915,-0.0205 21.62261,-0.3176 21.92208,-0.3176 0.78785,-0.0229 2.00013,-0.0862 2.20453,0.62572 0.0203,0.0708 0.0602,0.134 0.13444,0.134 h 0.53168 c 0.0742,0 0.134,-0.0602 0.134,-0.134 v -1.43284 c 0,-0.34276 0.0152,-0.63911 0.2287,-0.66971 7.63777,-0.51577 10.31624,-0.51277 14.71549,-0.41467 0.15509,-0.0699 0.13459,-0.15026 0.13459,-0.31401 0,-0.78316 1.39849,-1.19975 1.39849,-0.32809 v 1.58916 c 0,0.24684 -0.19944,0.44628 -0.44628,0.44628 h -0.56267 c -0.0737,0 -0.13399,0.0602 -0.13399,0.13459 v 1.31544 c 0,0.0742 0.0603,0.13459 0.13399,0.13459 h 47.10955 c 2.59128,0 6.36229,6.00186 8.98999,6.49121 4.96034,1.13418 9.97884,2.14185 15.04305,2.70225 1.71394,-0.17378 3.41555,-0.63191 5.11683,-0.97972 1.86518,-0.28538 17.81937,1.50558 35.70024,5.09273 0.74706,1.31563 -1.94162,23.19663 -4.78714,23.42003 -8.45618,-2.15521 -16.99806,-5.83834 -25.19751,-8.81856 l -17.53889,-6.59709 c -10.61567,-5.31513 -11.81042,-3.83548 -12.2559,-0.19841 -5.9e-4,0.008 -0.0452,-1.22114 -0.003,0.0252 -0.23078,3.21484 1.02737,5.87275 2.41722,8.65296 6.46264,11.45835 -7.61633,15.2742 -8.51334,6.29301 -0.93952,-4.54251 -2.44472,-8.5188 -5.61636,-11.91641 -1.54126,-1.24025 -1.61558,1.56042 -3.36703,1.56042 h -0.003 c -7.09914,-0.40601 -10.858,1.06787 -10.9289,-2.26276 -0.0799,-3.75315 0.4299,-4.01098 -5.08006,-3.87472 -0.29681,0.007 -0.8362,-0.019 -0.8872,0.0788 -1.22957,15.47849 -7.83388,28.76647 -25.5507,39.90677 -2.03876,1.28197 -9.24986,-12.01659 -9.09117,-12.64514 0.74706,-1.22917 19.52391,-15.01299 20.28555,-31.30674 -16.4768,-0.97558 -10.32431,1.26231 -15.51528,1.41133 -7.99441,0.22951 6.81638,-4.1079 -81.36107,-3.09084 -0.29945,0 -0.34917,-0.28601 -0.34917,-0.28601"
       id="path10"
       inkscape:label="body" /></g></g>
</svg>
